<?xml version="1.0" encoding="UTF-8"?>
<svg id="Calque_1" data-name="Calque 1" xmlns="http://www.w3.org/2000/svg" viewBox="0 0 24 26">
  <defs>
    <style>
      .cls-1 {
        fill: #0086c0;
      }
    </style>
  </defs>
  <path class="cls-1" d="m5.5,25.99c-1.07-1.74-1.16-3.79-1.75-5.67-.07-.22-.25-.5-.45-.57C1.4,19.1.15,17.55,0,15.61c-.11-1.56,1.08-3.41,2.77-4.21.4-.19.6-.41.72-.84,1.3-4.83,6.92-6.48,10.63-3.13.33.3.53.3.9.08.46-.27.99-.41,1.5-.56.41-.11.68-.27.83-.72.8-2.32,2.13-4.29,4.16-5.72.25-.18.54-.32.83-.43.64-.24,1.15-.02,1.51.63.26.48.18,1.02-.39,1.35-2.01,1.16-2.96,3.1-3.84,5.1-.16.37-.13.62.15.89,1.02.98,1.31,2.2,1.11,3.55-.06.4.07.6.37.83,1.31.99,1.9,2.34,1.63,3.95-.28,1.67-1.27,2.85-2.93,3.33-.48.14-.69.38-.78.83-.2.93-.4,1.87-.67,2.79-.27.9-.64,1.78-.96,2.67H5.5Zm4.32-17.82c-2.21.01-3.77,1.54-4.03,3.75-.14,1.21-.36,1.43-1.55,1.65-.66.12-1.22.44-1.49,1.11-.4.97-.05,1.99.86,2.47.92.5,1.98.24,2.6-.62.74-1.03.91-1.11,2.08-.73,1.41.46,2.71.26,3.92-.59.7-.49,1.12-.4,1.81.09.46.32,1.03.63,1.57.64.83.02,1.4.29,1.94.91.85.99,2.37.67,2.82-.56.27-.74-.05-1.32-.53-1.87-.46-.52-.85-.11-1.23.06-2.57,1.08-5.49-.81-5.52-3.6,0-.62-.13-1.15-.6-1.57-.81-.73-1.76-1.1-2.64-1.13h-.02Zm1.65,15.33h0c1.28,0,2.55-.02,3.82.02.52.02.74-.18.85-.67.21-.98.49-1.94.71-2.91.04-.17.01-.47-.1-.55-.6-.42-1.12-.98-1.94-1.06-.5-.05-.98-.34-1.48-.48-.22-.06-.52-.11-.7-.02-1.37.69-2.8.76-4.27.52-.39-.07-2.03,1.07-2.1,1.46-.02.14.01.29.04.43.19.85.4,1.7.57,2.56.1.54.38.72.91.7,1.23-.03,2.46-.01,3.7-.01v.02Zm6.99-12.64c0-.77-.71-1.49-1.48-1.5-.77-.01-1.42.6-1.44,1.35-.02.8.69,1.52,1.51,1.52s1.41-.62,1.41-1.37h0Z"/>
</svg>