<?xml version="1.0" encoding="utf-8"?>
<!-- Generator: Adobe Illustrator 27.4.1, SVG Export Plug-In . SVG Version: 6.00 Build 0)  -->
<svg version="1.1" id="Calque_1" xmlns="http://www.w3.org/2000/svg" xmlns:xlink="http://www.w3.org/1999/xlink" x="0px" y="0px"
	 viewBox="0 0 411 236" style="enable-background:new 0 0 411 236;" xml:space="preserve">
<style type="text/css">
	.st0{clip-path:url(#SVGID_00000057866527338299912680000017359835624018069947_);}
	.st1{fill:#F2F2F2;}
	.st2{fill:#0086BF;}
	.st3{fill:#403D56;}
	.st4{fill:#FFFFFF;}
	.st5{opacity:0.3;fill:#0086BF;enable-background:new    ;}
	.st6{fill:#575DA7;}
	.st7{fill:#F6B7B9;}
	.st8{fill:#2F2F41;}
	.st9{fill:#575A8A;}
	.st10{opacity:0.1;enable-background:new    ;}
</style>
<g>
	<defs>
		<rect id="SVGID_1_" y="0" width="411" height="236"/>
	</defs>
	<clipPath id="SVGID_00000007409164396206455600000007768063740327506067_">
		<use xlink:href="#SVGID_1_"  style="overflow:visible;"/>
	</clipPath>
	<g style="clip-path:url(#SVGID_00000007409164396206455600000007768063740327506067_);">
		<g>
			<path class="st1" d="M205.5,236C319,236,411,230.7,411,224.2s-92-11.8-205.5-11.8S0,217.7,0,224.2S92,236,205.5,236z"/>
			<path class="st1" d="M374.2,0H65.4v9.8h308.7L374.2,0L374.2,0z"/>
			<path class="st2" d="M73.7,7.3c1.4,0,2.5-1.1,2.5-2.5s-1.1-2.5-2.5-2.5s-2.5,1.1-2.5,2.5S72.3,7.3,73.7,7.3z"/>
			<path class="st2" d="M82,7.3c1.4,0,2.5-1.1,2.5-2.5S83.4,2.2,82,2.2s-2.5,1.1-2.5,2.5S80.6,7.3,82,7.3z"/>
			<path class="st2" d="M90.2,7.3c1.4,0,2.5-1.1,2.5-2.5s-1.1-2.5-2.5-2.5s-2.5,1.1-2.5,2.5S88.8,7.3,90.2,7.3z"/>
			<path class="st3" d="M65.7,155l-0.2,0.2v66.1h308.7V105.2l-3.7,0.3L65.7,155L65.7,155z"/>
			<path class="st3" d="M173.9,65.6H87.7V69h86.2V65.6z"/>
			<path class="st3" d="M173.9,73.2H87.7v3.5h86.2V73.2z"/>
			<path class="st3" d="M116.9,80.8H87.7v3.5h29.2C116.9,84.3,116.9,80.8,116.9,80.8z"/>
			<path class="st4" d="M349.8,161.8h-86.2v3.5h86.2V161.8z"/>
			<path class="st4" d="M349.8,169.5h-86.2v3.5h86.2V169.5z"/>
			<path class="st4" d="M292.7,177.1h-29.2v3.5h29.2V177.1z"/>
			<path class="st1" d="M210,218.1c1.9,0,3.4-1.5,3.4-3.4s-1.5-3.4-3.4-3.4s-3.4,1.5-3.4,3.4S208.1,218.1,210,218.1z"/>
			<path class="st1" d="M219.8,218.4c1.9,0,3.4-1.5,3.4-3.4s-1.5-3.4-3.4-3.4s-3.4,1.5-3.4,3.4S217.9,218.4,219.8,218.4z"/>
			<path class="st1" d="M229.6,218.8c1.9,0,3.4-1.5,3.4-3.4s-1.5-3.4-3.4-3.4s-3.4,1.5-3.4,3.4S227.8,218.8,229.6,218.8z"/>
			<path class="st3" d="M219.8,217.7c1.5,0,2.7-1.2,2.7-2.7s-1.2-2.7-2.7-2.7s-2.7,1.2-2.7,2.7S218.3,217.7,219.8,217.7z"/>
			<path class="st3" d="M145.4,105.2h-29.2v6.7h29.2V105.2z"/>
			<path class="st4" d="M318.9,195.2h-29.2v6.6h29.2V195.2z"/>
			<path class="st5" d="M130.9,128.8c11.2,0,20.2-9,20.2-20.2s-9-20.2-20.2-20.2s-20.2,9-20.2,20.2S119.8,128.8,130.9,128.8z"/>
			<path class="st5" d="M130.9,122c7.4,0,13.5-6,13.5-13.4s-6-13.4-13.5-13.4s-13.5,6-13.5,13.4S123.5,122,130.9,122z"/>
			<path class="st2" d="M130.9,117.9c5.2,0,9.4-4.2,9.4-9.3s-4.2-9.3-9.4-9.3s-9.3,4.2-9.3,9.3S125.8,117.9,130.9,117.9z"/>
			<path class="st5" d="M300.9,78.8c11.2,0,20.2-9,20.2-20.2s-9-20.2-20.2-20.2s-20.2,9-20.2,20.2S289.7,78.8,300.9,78.8z"/>
			<path class="st5" d="M300.9,72.1c7.4,0,13.5-6,13.5-13.4s-6-13.4-13.5-13.4s-13.5,6-13.5,13.4S293.5,72.1,300.9,72.1z"/>
			<path class="st2" d="M300.9,68c5.2,0,9.4-4.2,9.4-9.3s-4.2-9.3-9.4-9.3s-9.4,4.2-9.4,9.3S295.7,68,300.9,68z"/>
			<path class="st5" d="M304.5,218.7c11.2,0,20.2-9,20.2-20.1s-9-20.1-20.2-20.1s-20.2,9-20.2,20.1S293.3,218.7,304.5,218.7z"/>
			<path class="st5" d="M304.5,212c7.4,0,13.5-6,13.5-13.4s-6-13.4-13.5-13.4s-13.5,6-13.5,13.4S297,212,304.5,212L304.5,212z"/>
			<path class="st2" d="M304.5,207.9c5.2,0,9.4-4.2,9.4-9.3s-4.2-9.3-9.4-9.3s-9.4,4.2-9.4,9.3S299.3,207.9,304.5,207.9z"/>
			<path class="st6" d="M34,30.1l-0.4,10.7l8.3,0.3l0.4-10.7L34,30.1z"/>
			<path class="st7" d="M71.6,67.5c0,0,11.5-5.5,11.3-0.8s-11.6,7.9-11.6,7.9L71.6,67.5z"/>
			<path class="st8" d="M65.2,107.6c0,0,5.4,13.3,7.4,22.8c2,9.6,5.1,22.7,1.1,32.1s-15.1,36.8-15.2,39.8c-0.1,3,1,6-1.4,5.9
				c-2.4-0.1-15.3-4.1-15.8-5.9s4.4-6.4,4.4-6.4l12.2-38.1l-12.7-24.8l-9.2,37l-1.8,46.2c0,0-8.8-2.7-10.1-0.4c0,0-4-5.5-4.4-7.9
				c-0.5-2.4,1.9-48,1.9-48S13.5,108,20,108.2S52.1,92.8,65.2,107.6L65.2,107.6L65.2,107.6z"/>
			<path class="st8" d="M57.3,205.8c0,0,6,13.3,6.6,13.9c0.6,0.6,4.5,6.7,1.5,6.6c-3-0.1-10-3.4-15.1-8.3s-12-13.5-11.3-14.1
				c0.6-0.6,4.8-2.2,4.8-2.2L57.3,205.8L57.3,205.8z"/>
			<path class="st8" d="M33.2,213.2c0,0,0.4,5.9,1.5,8.4s1,6-2,5.9c-3-0.1-10.6-1.6-10.6-1.6s-0.5-3.6,0.2-4.1
				c0.6-0.6,3.2-7,2.1-8.8C23.2,211,33.2,213.2,33.2,213.2L33.2,213.2z"/>
			<path class="st7" d="M28.8,20.2c0,0-6.3,9.8-8.8,12.1s4.5,7.3,4.5,7.3l12.4,1.7c0,0-0.2-11.3,0.5-12.4S28.8,20.2,28.8,20.2z"/>
			<path class="st2" d="M39.6,33c0,0-2.6,4.7-4.9,4.6c-2.4-0.1-14.7-5.3-15.2-7.1c-0.5-1.8-4.1,12.9-4.1,12.9l30.1,52.8l7.3-5.1
				l-3.5-31l-2.9-16.7L39.6,33L39.6,33L39.6,33z"/>
			<path class="st9" d="M18.4,80.3c1.2,2.5,2,5.1,1.8,7.8c0,0.1,0,0.2,0,0.3c-0.3,5.5-2.3,11.8-3,16.4c-0.5,3.3-0.4,5.7,1.6,6.3
				c4.7,1.4-0.7,2.3,17.5,8.4c18.2,6.1,21.4,0.8,21.4-0.4s-2.6-10.2-2-10.8s8.6,7.4,11.1,6.4c2.4-1.1,0.3-7.1,0.3-7.1
				S61.6,95,61.7,92c0.1-3-8.3-16.9-8.3-16.9l-5.7-37c0,0-2.2-4.8-5.1-5.5c-2.9-0.7-5.4,1-5.4,1l4.9,10.9l5.2,19.2l-0.9,7.1
				c0,0-6-12.7-10-17.6S24,36.6,24,36.6s-2-6.7-0.5-8.6c1.5-2-6.2-2.3-9.5,5.9c-1.7,4.3-4.6,10.8-6.3,16.8C6,56,5.3,61,6.9,63.8
				C9.3,68.2,15.3,73.9,18.4,80.3L18.4,80.3L18.4,80.3z"/>
			<path class="st10" d="M6.9,63.8c2.4,4.4,8.4,10.1,11.5,16.5c0.8-2.9,1.8-5.9,1.8-5.9s3.8-20-7.4-25.2C11,49,9.1,49.5,7.6,50.6
				C6.1,56,5.3,61,6.9,63.8L6.9,63.8z"/>
			<path class="st9" d="M50.9,62.5l9.4,2.7l13.1,0.5l1.3,11.3l-21.5,1.5C53.3,78.7,47.9,63.6,50.9,62.5
				C50.9,62.6,50.9,62.6,50.9,62.5z"/>
			<path class="st7" d="M35.6,100.6c0,0,12.6,2.1,9.7,5.9c-2.9,3.8-14-0.2-14-0.2L35.6,100.6z"/>
			<path class="st10" d="M20.2,88.4c-0.3,5.5-2.3,11.8-3,16.4c4,3.8,7.8,7.1,9.3,7.2c3,0.1,7.7-0.3,9.5,0.4
				c1.8,0.7,2.8-10.6,2.8-10.6s-1-3.6-5.7-5.6C29.8,94.9,23.7,91.3,20.2,88.4L20.2,88.4L20.2,88.4z"/>
			<path class="st9" d="M12.9,45.7c0,0-10.1-1.6-9.5,15.1S2.4,88,6.4,91.1c4,3.1,17.2,17.3,20.1,17.4c3,0.1,7.7-0.3,9.5,0.4
				s2.8-10.6,2.8-10.6s-1-3.6-5.7-5.6s-15.7-8.9-15.6-11.3s2.8-10.6,2.8-10.6S24,50.8,12.9,45.7z"/>
			<path class="st7" d="M37.7,34.7c7.2,0,13.1-5.8,13.1-13s-5.8-13-13.1-13s-13.1,5.8-13.1,13S30.4,34.7,37.7,34.7z"/>
			<path class="st8" d="M46.5,3c0.3,0.3,0.7,0.5,1.1,0.5c0.4,0.1,0.8-0.2,0.9-0.6c0.3,0.6,0.6,1.3,1.2,1.6s1.6,0.1,1.6-0.6
				c0.1,0.5,0.3,1,0.7,1.4c0.4,0.4,1.1,0.4,1.4,0c-0.3,1.5-0.1,3-0.2,4.4s-0.5,3.1-1.6,4c-1.6,1.4-4.1,1.1-6.2,0.8
				c-0.3-0.1-0.7-0.1-1,0.1c-0.8,0.3-0.8,1.5-0.8,2.3c-0.1,3.2-2.5,5.8-5.7,6.2c-0.8,0.1-1.7-0.1-2.4-0.6c-0.6-0.5-0.9-1.4-1.6-1.8
				c-1.1-0.6-2.5,0.3-3.4,1.3c-0.8,1-1.6,2.2-2.9,2.4c-1.7,0.2-3-1.5-3.6-3.1c-1.8-4.5-1.6-9.6,0.4-14C27.9-0.3,40-1.5,46.5,3z"/>
			<path class="st1" d="M360.3,210.4c4.6,7.8,13.9,10.9,13.9,10.9s1.8-9.6-2.8-17.4S357.5,193,357.5,193S355.7,202.6,360.3,210.4z"
				/>
			<path class="st2" d="M363.2,207.7c8,4.4,11.3,13.6,11.3,13.6s-9.6,2.1-17.5-2.4c-8-4.4-11.3-13.6-11.3-13.6
				S355.2,203.3,363.2,207.7z"/>
		</g>
	</g>
</g>
</svg>
