<?xml version="1.0" encoding="utf-8"?>
<!-- Generator: Adobe Illustrator 27.4.1, SVG Export Plug-In . SVG Version: 6.00 Build 0)  -->
<svg version="1.1" id="Calque_1" xmlns="http://www.w3.org/2000/svg" xmlns:xlink="http://www.w3.org/1999/xlink" x="0px" y="0px"
	 viewBox="0 0 390 379" style="enable-background:new 0 0 390 379;" xml:space="preserve">
<style type="text/css">
	.st0{fill-rule:evenodd;clip-rule:evenodd;fill:#0086BF;stroke:#0086BF;stroke-width:18;stroke-miterlimit:10;}
	.st1{fill:#F2F2F2;}
	.st2{fill:#2F2D56;}
	.st3{fill:#0086BF;}
	.st4{fill:#696969;}
	.st5{fill:#7F7F80;}
	.st6{fill:#E5E4E4;}
</style>
<path class="st0" d="M200,309c66.3,0,120-53.7,120-120S266.3,69,200,69S80,122.7,80,189S133.7,309,200,309z M200,288.8
	c55.1,0,99.8-44.7,99.8-99.8S255.1,89.2,200,89.2s-99.8,44.7-99.8,99.8S144.9,288.8,200,288.8z"/>
<path class="st1" d="M246,29h128c8.8,0,16,7.2,16,16v128c0,8.8-7.2,16-16,16H246c-8.8,0-16-7.2-16-16V45C230,36.2,237.2,29,246,29z"
	/>
<path class="st2" d="M277.3,142.3v9.7h-1.6v-6.7l-3,6.7h-1.1l-3-6.7v6.7H267v-9.7h1.7l3.4,7.6l3.4-7.6H277.3L277.3,142.3z
	 M278.9,148.1c0-0.8,0.2-1.5,0.5-2.1c0.3-0.6,0.8-1.1,1.3-1.4c0.6-0.3,1.2-0.5,1.9-0.5c0.6,0,1.1,0.1,1.6,0.4
	c0.5,0.2,0.8,0.5,1.1,0.9v-1.1h1.6v7.7h-1.6v-1.1c-0.3,0.4-0.6,0.7-1.1,0.9c-0.5,0.2-1,0.4-1.6,0.4c-0.7,0-1.3-0.2-1.8-0.5
	c-0.5-0.4-1-0.8-1.3-1.4C279,149.6,278.9,148.9,278.9,148.1L278.9,148.1z M285.2,148.1c0-0.5-0.1-1-0.3-1.4
	c-0.2-0.4-0.5-0.7-0.9-0.9c-0.4-0.2-0.7-0.3-1.1-0.3s-0.8,0.1-1.1,0.3c-0.4,0.2-0.6,0.5-0.9,0.9c-0.2,0.4-0.3,0.8-0.3,1.4
	s0.1,1,0.3,1.4c0.2,0.4,0.5,0.7,0.9,0.9c0.4,0.2,0.8,0.3,1.1,0.3s0.8-0.1,1.1-0.3c0.4-0.2,0.6-0.5,0.9-0.9
	C285.1,149.1,285.2,148.7,285.2,148.1L285.2,148.1z M288.4,148.1c0-0.8,0.2-1.5,0.5-2.1c0.3-0.6,0.8-1.1,1.3-1.4
	c0.6-0.3,1.2-0.5,1.9-0.5c0.6,0,1.1,0.1,1.6,0.4c0.5,0.2,0.8,0.5,1.1,0.9v-1.1h1.6v11.4h-1.6v-4.8c-0.2,0.4-0.6,0.6-1.1,0.9
	c-0.5,0.2-1,0.4-1.6,0.4c-0.7,0-1.3-0.2-1.8-0.5c-0.5-0.4-1-0.8-1.3-1.4C288.5,149.6,288.4,148.9,288.4,148.1L288.4,148.1z
	 M294.7,148.1c0-0.5-0.1-1-0.3-1.4c-0.2-0.4-0.5-0.7-0.9-0.9c-0.4-0.2-0.7-0.3-1.1-0.3s-0.8,0.1-1.1,0.3c-0.4,0.2-0.6,0.5-0.9,0.9
	c-0.2,0.4-0.3,0.8-0.3,1.4s0.1,1,0.3,1.4c0.2,0.4,0.5,0.7,0.9,0.9c0.4,0.2,0.8,0.3,1.1,0.3s0.8-0.1,1.1-0.3c0.4-0.2,0.6-0.5,0.9-0.9
	C294.5,149.1,294.7,148.7,294.7,148.1L294.7,148.1z M305.4,144.3v7.7h-1.6v-0.9c-0.2,0.3-0.6,0.6-1,0.8c-0.4,0.2-0.8,0.3-1.3,0.3
	c-0.6,0-1.1-0.1-1.6-0.4c-0.5-0.2-0.9-0.6-1.1-1.1c-0.3-0.5-0.4-1.1-0.4-1.8v-4.5h1.6v4.3c0,0.7,0.2,1.2,0.5,1.6
	c0.4,0.4,0.8,0.6,1.4,0.6s1.1-0.2,1.4-0.6c0.4-0.4,0.5-0.9,0.5-1.6v-4.3L305.4,144.3L305.4,144.3z M314.5,148c0,0.3,0,0.6-0.1,0.8
	h-5.9c0,0.6,0.3,1.1,0.7,1.5c0.4,0.4,0.9,0.6,1.5,0.6c0.9,0,1.5-0.4,1.8-1.1h1.7c-0.2,0.7-0.7,1.3-1.3,1.8c-0.6,0.4-1.4,0.7-2.3,0.7
	c-0.7,0-1.4-0.2-2-0.5c-0.6-0.3-1-0.8-1.4-1.4c-0.3-0.6-0.5-1.3-0.5-2.1s0.2-1.5,0.5-2.1c0.3-0.6,0.8-1.1,1.4-1.4
	c0.6-0.3,1.3-0.5,2-0.5s1.4,0.2,2,0.5s1,0.8,1.3,1.3C314.4,146.5,314.6,147.2,314.5,148L314.5,148z M312.9,147.5
	c0-0.6-0.2-1.1-0.6-1.4s-0.9-0.5-1.5-0.5c-0.5,0-1,0.2-1.4,0.5s-0.6,0.8-0.7,1.4H312.9L312.9,147.5z M318,145.6v4.3
	c0,0.3,0.1,0.5,0.2,0.6c0.1,0.1,0.4,0.2,0.7,0.2h1v1.3h-1.3c-0.7,0-1.3-0.2-1.6-0.5c-0.4-0.3-0.6-0.9-0.6-1.6v-4.3h-0.9v-1.3h0.9
	v-1.9h1.6v1.9h1.9v1.3H318L318,145.6z M323.2,145.6v4.3c0,0.3,0.1,0.5,0.2,0.6c0.1,0.1,0.4,0.2,0.7,0.2h1v1.3h-1.3
	c-0.7,0-1.3-0.2-1.6-0.5c-0.4-0.3-0.6-0.9-0.6-1.6v-4.3h-0.9v-1.3h0.9v-1.9h1.6v1.9h1.9v1.3H323.2L323.2,145.6z M326,148.1
	c0-0.8,0.2-1.5,0.5-2.1c0.3-0.6,0.8-1.1,1.3-1.4c0.6-0.3,1.2-0.5,1.9-0.5c0.6,0,1.1,0.1,1.6,0.4c0.5,0.2,0.8,0.5,1.1,0.9v-1.1h1.6
	v7.7h-1.6v-1.1c-0.3,0.4-0.6,0.7-1.1,0.9c-0.5,0.2-1,0.4-1.6,0.4c-0.7,0-1.3-0.2-1.8-0.5c-0.5-0.4-1-0.8-1.3-1.4
	C326.1,149.6,326,148.9,326,148.1L326,148.1z M332.3,148.1c0-0.5-0.1-1-0.3-1.4c-0.2-0.4-0.5-0.7-0.9-0.9c-0.4-0.2-0.7-0.3-1.1-0.3
	s-0.8,0.1-1.1,0.3c-0.4,0.2-0.6,0.5-0.9,0.9c-0.2,0.4-0.3,0.8-0.3,1.4s0.1,1,0.3,1.4c0.2,0.4,0.5,0.7,0.9,0.9
	c0.4,0.2,0.8,0.3,1.1,0.3s0.8-0.1,1.1-0.3c0.4-0.2,0.6-0.5,0.9-0.9C332.2,149.1,332.3,148.7,332.3,148.1L332.3,148.1z M339.1,144.2
	c0.6,0,1.1,0.1,1.6,0.4c0.5,0.2,0.8,0.5,1.1,0.9v-1.1h1.6v7.8c0,0.7-0.1,1.3-0.5,1.9c-0.3,0.6-0.7,1-1.3,1.3c-0.6,0.3-1.2,0.5-2,0.5
	c-1,0-1.9-0.2-2.6-0.7s-1.1-1.1-1.2-2h1.6c0.1,0.4,0.4,0.7,0.8,1c0.4,0.2,0.9,0.4,1.4,0.4c0.6,0,1.2-0.2,1.5-0.6
	c0.4-0.4,0.6-1,0.6-1.7v-1.3c-0.3,0.4-0.6,0.7-1.1,0.9c-0.5,0.2-1,0.4-1.6,0.4c-0.7,0-1.3-0.2-1.9-0.5c-0.5-0.4-1-0.8-1.3-1.4
	c-0.3-0.6-0.5-1.3-0.5-2.1s0.2-1.5,0.5-2.1c0.3-0.6,0.8-1.1,1.3-1.4C337.8,144.3,338.4,144.2,339.1,144.2L339.1,144.2z M341.8,148.1
	c0-0.5-0.1-1-0.3-1.4c-0.2-0.4-0.5-0.7-0.9-0.9s-0.7-0.3-1.1-0.3s-0.8,0.1-1.1,0.3c-0.4,0.2-0.6,0.5-0.9,0.9
	c-0.2,0.4-0.3,0.8-0.3,1.4s0.1,1,0.3,1.4c0.2,0.4,0.5,0.7,0.9,0.9c0.4,0.2,0.8,0.3,1.1,0.3s0.8-0.1,1.1-0.3c0.4-0.2,0.6-0.5,0.9-0.9
	C341.7,149.1,341.8,148.7,341.8,148.1L341.8,148.1z M352.6,148c0,0.3,0,0.6-0.1,0.8h-5.9c0,0.6,0.3,1.1,0.7,1.5s0.9,0.6,1.5,0.6
	c0.9,0,1.5-0.4,1.8-1.1h1.7c-0.2,0.7-0.7,1.3-1.3,1.8c-0.6,0.4-1.4,0.7-2.3,0.7c-0.7,0-1.4-0.2-2-0.5c-0.6-0.3-1-0.8-1.4-1.4
	c-0.3-0.6-0.5-1.3-0.5-2.1s0.2-1.5,0.5-2.1c0.3-0.6,0.8-1.1,1.4-1.4c0.6-0.3,1.3-0.5,2-0.5s1.4,0.2,2,0.5c0.6,0.3,1,0.8,1.3,1.3
	C352.4,146.5,352.6,147.2,352.6,148L352.6,148z M350.9,147.5c0-0.6-0.2-1.1-0.6-1.4s-0.9-0.5-1.5-0.5c-0.5,0-1,0.2-1.4,0.5
	s-0.6,0.8-0.7,1.4H350.9L350.9,147.5z"/>
<path class="st3" d="M274,68.7c0.2-0.2,0.4-0.5,0.7-0.7c2.2-2.2,4.4-4.3,6.5-6.5c0.4-0.4,0.9-0.6,1.5-0.6c10.6,0,21.2,0,31.7,0
	c0.4,0,0.9,0,1.3,0.1c0.6,0.1,0.8,0.6,0.9,1.1c0,0.2,0,0.4,0,0.5c0,7.5,0,14.9,0,22.4c0,1.2-0.4,1.9-1.9,1.9c-13.1,0-26.2,0-39.4,0
	c-0.6,0-1-0.2-1.4-0.6L274,68.7L274,68.7L274,68.7z M278.3,68c0.7,0,1.5,0,2.2,0c0.4,0,0.6-0.1,0.6-0.5c0-0.6,0-1.3,0-1.9
	c0-0.1,0.1-0.3-0.1-0.4c-0.1,0-0.2,0.1-0.3,0.2c-0.8,0.8-1.6,1.6-2.4,2.4c-0.1,0-0.3,0-0.2,0.2C278.1,68.1,278.2,68,278.3,68z
	 M314.2,78.4v-0.8c0-4.6,0-9.2,0-13.7c0-0.6-0.2-0.7-0.7-0.7c-9.8,0-19.6,0-29.4,0c-0.5,0-0.7,0.1-0.7,0.7c0,1.7,0,3.4,0,5.1
	c0,0.9-0.5,1.4-1.5,1.4c-1.7,0-3.4,0-5.1,0c-0.5,0-0.5,0.2-0.5,0.6c0,1.9,0,3.8,0,5.8c0,0.2-0.1,0.4,0.1,0.6c0.6-0.5,1.2-1,1.9-1.5
	c1-0.8,2-1.7,3-2.4c1.5-1.1,2.9-2.2,4.3-3.4c0.9-0.8,1.7-0.9,2.6-0.1c1.9,1.7,3.8,3.4,5.7,5.2c1.5,1.4,3.1,2.8,4.6,4.2
	c0.2,0.2,0.3,0.2,0.6,0c1.4-1.2,2.8-2.4,4.2-3.6c1-0.9,2-1.8,3.1-2.6c0.5-0.4,1-0.4,1.5,0c1,0.9,2.1,1.8,3.1,2.7
	C312,76.5,313,77.4,314.2,78.4L314.2,78.4L314.2,78.4z M276.2,84.5h35c0.8,0,1.6,0,2.4,0c0.4,0,0.6-0.1,0.6-0.6c0-0.7,0-1.3,0-2
	c0-0.4-0.1-0.6-0.4-0.8c-1-0.8-2.1-1.5-3-2.4c-1.1-1.1-2.4-2-3.5-3.1c-0.2-0.2-0.3-0.2-0.5,0c-1.4,1.2-2.8,2.4-4.1,3.6
	c-1,0.9-2,1.8-3.1,2.6c-0.5,0.4-1.1,0.5-1.6,0c-2.1-1.9-4.3-3.9-6.5-5.8c-1.3-1.1-2.6-2.2-3.8-3.4c-0.6-0.6-0.9-0.7-1.6-0.1
	c-1.5,1.3-3.1,2.5-4.6,3.7c-1.3,1.1-2.7,2.1-4,3.2c-0.7,0.6-1.3,1.2-1.1,2.2C276.4,82.6,276.5,83.5,276.2,84.5L276.2,84.5
	L276.2,84.5z"/>
<path class="st3" d="M287.2,120c-0.2-0.2-0.4-0.2-0.6-0.3c-1.4-0.5-2.2-1.6-2.9-2.9c-0.3-0.7-0.2-1.2-0.2-1.8c0-2.1,0-4.1,0-6.2
	c0-0.5,0.1-0.7,0.6-0.6c0.6,0.1,1.3-0.2,1.7,0.1c0.4,0.3,0.1,1.1,0.1,1.7c0,1.9,0,3.7,0,5.6c0,0.9,1.1,2,2.1,2.1c0.3,0,0.6,0,1,0
	c13.9,0,27.8,0,41.7,0c0.9,0,1.7-0.3,2.1-1.2c0.2-0.4,0.3-0.4,0.7-0.2c0.4,0.2,0.8,0.3,1.2,0.5c0.5,0.1,0.4,0.3,0.2,0.7
	c-0.8,1.3-1.7,2.2-3.2,2.5c0,0-0.1,0.1-0.1,0.1L287.2,120L287.2,120z"/>
<path class="st3" d="M305.3,49c5.5,0,11.1,0,16.6,0c0.8,0,1.4,0.3,1.9,0.8c3.7,3.7,7.3,7.3,11,11c0.5,0.5,0.8,1.1,0.8,1.8
	c0,3.6,0,7.1,0,10.7c0,0.5-0.1,0.7-0.6,0.6c-0.6-0.1-1.3,0.2-1.7-0.1c-0.4-0.3-0.1-1.1-0.1-1.7c0-2.7,0-5.4,0-8.2
	c0-0.5-0.1-0.7-0.7-0.7c-2.3,0-4.5,0.1-6.8,0c-2-0.1-3.7-1.4-4.3-3.6c-0.1-0.5-0.1-0.9-0.1-1.3c0-2.1,0-4.2,0-6.2
	c0-0.6-0.2-0.7-0.7-0.7c-10.7,0-21.4,0-32.1,0c-1.4,0-2.3,0.5-2.7,1.8c-0.1,0.2,0,0.4,0,0.6c0,1.4,0,2.8,0,4.2c0,0.4,0,0.6-0.5,0.6
	c-0.6-0.1-1.4,0.2-1.7-0.1c-0.4-0.3-0.1-1.1-0.1-1.7c0-1.1,0-2.2,0-3.3c0-1.3,1.4-3.3,2.6-3.8c1-0.4,2-0.6,3.1-0.5
	C294.5,49,299.9,49,305.3,49L305.3,49L305.3,49z M323.7,53.3c0,1.7,0,3.5,0,5.2c0,1.2,1.1,2.4,2.2,2.3c1.7,0,3.4,0,5.1,0
	c0.1,0,0.2,0,0.3-0.2c-0.5-0.5-1-1-1.5-1.5c-1.9-1.9-3.9-3.9-5.8-5.8c0-0.1,0-0.2-0.1-0.2S323.7,53.2,323.7,53.3L323.7,53.3
	L323.7,53.3z"/>
<path class="st3" d="M294.7,105.8H280c-0.8,0-1.3-0.5-1.3-1.3V90.6c0-0.9,0.3-1.2,1.2-1.3c0.2,0,0.4,0,0.5,0h28.4
	c1.3,0,1.8,0.5,1.8,1.8c0,4.3,0,8.6,0,13c0,0.4,0,0.7-0.2,1.1c-0.2,0.4-0.5,0.8-1.1,0.8C304.5,105.8,299.6,105.8,294.7,105.8
	L294.7,105.8z M294.7,91.6c-4.3,0-8.6,0-12.9,0c-0.5,0-0.7,0.1-0.7,0.7c0,3.5,0,7,0,10.5c0,0.6,0.2,0.7,0.7,0.7c8.6,0,17.2,0,25.8,0
	c0.5,0,0.7-0.1,0.7-0.7c0-3.5,0-7,0-10.5c0-0.6-0.1-0.7-0.7-0.7C303.3,91.6,299,91.6,294.7,91.6L294.7,91.6L294.7,91.6z"/>
<path class="st3" d="M327.2,114.1c-4.2,0-8.3,0-12.5,0c-1.4,0-1.7-0.5-1.7-1.7c0-5.2,0-10.3,0-15.5c0-0.3-0.1-0.5,0-0.8
	c0.2-0.7,0.6-1,1.5-1c4.3,0,8.6,0,12.9,0h12.4c1.1,0,1.5,0.4,1.6,1.5c0,0.2,0,0.4,0,0.6v15.2c0,1.3-0.4,1.7-1.7,1.7L327.2,114.1
	L327.2,114.1z M327.2,111.7c3.8,0,7.5,0,11.3,0c0.5,0,0.6-0.1,0.6-0.6c0-4.3,0-8.6,0-13c0-0.5-0.1-0.6-0.6-0.6c-7.5,0-14.9,0-22.4,0
	c-0.5,0-0.6,0.1-0.6,0.6c0,4.2,0,8.3,0,12.5c0,0.2,0.1,0.3,0,0.5c-0.3,0.6,0.1,0.6,0.5,0.6C319.7,111.7,323.4,111.7,327.2,111.7
	L327.2,111.7L327.2,111.7z"/>
<path class="st3" d="M331.9,92.8c-3.8,0-7.7,0-11.5,0c-1,0-1.4-0.4-1.4-1.4c0-4.7,0-9.3,0-14c0-0.6,0.4-1.1,1.2-1.2
	c0.2,0,0.4,0,0.6,0h22.4c1.5,0,1.9,0.3,1.9,1.9c0,4.3,0,8.6,0,12.9c0,1.3-0.5,1.8-1.8,1.8C339.4,92.8,335.7,92.8,331.9,92.8
	L331.9,92.8L331.9,92.8z M332,90.4c3.3,0,6.6,0,10,0c0.6,0,0.7-0.2,0.7-0.7c0-3.5,0-7,0-10.5c0-0.5-0.1-0.7-0.6-0.7
	c-6.7,0-13.4,0-20,0c-0.6,0-0.7,0.2-0.7,0.7c0,3.5,0,7,0,10.5c0,0.5,0.1,0.7,0.6,0.6C325.3,90.4,328.6,90.4,332,90.4
	C332,90.4,332,90.4,332,90.4z"/>
<path class="st3" d="M300,56.1c-0.8,0-1.2-0.4-1.2-1.2s0.4-1.2,1.1-1.2c0.8,0,1.2,0.4,1.2,1.2S300.8,56.1,300,56.1L300,56.1z"/>
<path class="st3" d="M295.3,53.7c0.8,0,1.1,0.4,1.1,1.2s-0.4,1.2-1.2,1.2c-0.8,0-1.1-0.4-1.1-1.2C294.1,54.1,294.5,53.7,295.3,53.7
	L295.3,53.7z"/>
<path class="st3" d="M291.8,55c0,0.8-0.4,1.2-1.1,1.2c-0.8,0-1.2-0.4-1.2-1.2s0.4-1.2,1.1-1.2C291.3,53.7,291.8,54.2,291.8,55
	L291.8,55z"/>
<path class="st4" d="M278.3,67.7c0,0.1,0,0.2,0.1,0.2c-0.1,0.1-0.3,0.1-0.3-0.1C278,67.7,278.2,67.7,278.3,67.7z"/>
<path class="st4" d="M323.9,53.3c-0.1,0-0.1,0-0.2,0c0-0.1,0-0.2,0.1-0.2C323.9,53.2,323.9,53.2,323.9,53.3L323.9,53.3z"/>
<path class="st3" d="M302.3,69.1c0.2,1.9-1.7,3.7-3.8,3.6c-1.8-0.1-3.3-1.7-3.2-3.6c0-2,1.4-3.5,3.6-3.5
	C300.5,65.6,302.5,67.2,302.3,69.1L302.3,69.1z M299.9,69.1c0-0.7-0.4-1.1-1.2-1.1c-0.5,0-1.2,0.6-1.2,1.1c0,0.6,0.5,1.1,1.2,1.1
	C299.5,70.2,299.9,69.8,299.9,69.1L299.9,69.1z"/>
<path class="st3" d="M287.7,77.1c-1.1,0.9-2.2,1.8-3.3,2.7c-0.8,0.6-1.5,1.2-2.3,1.8c-0.3,0.3-0.5,0.2-0.6-0.1
	c-0.3-0.4-0.6-0.9-1-1.3c-0.3-0.3,0-0.4,0.2-0.5c0.8-0.7,1.6-1.3,2.4-1.9c0.9-0.7,1.7-1.4,2.6-2.1c0.4-0.3,0.7-0.5,1,0.1
	C286.9,76.3,287.4,76.7,287.7,77.1L287.7,77.1L287.7,77.1z"/>
<path class="st3" d="M305.6,82.9c-0.3-0.1-0.5-0.4-0.7-0.6c-0.7-0.7-0.7-1.3,0-1.9c0,0,0.1-0.1,0.1-0.1c1.4-1.4,1.5-1.4,2.7,0.2
	c0.1,0.1,0.2,0.2,0,0.4c-0.7,0.7-1.3,1.3-2,1.9C305.7,82.8,305.6,82.8,305.6,82.9L305.6,82.9L305.6,82.9z"/>
<path class="st3" d="M297.1,94c2.8,0,5.5,0,8.2,0c0.5,0,0.6,0.1,0.6,0.6c0,1.8,0,1.8-1.7,1.8c-5.1,0-10.2,0-15.2,0
	c-0.6,0-0.8-0.1-0.8-0.8c0-1.6,0-1.6,1.6-1.6H297.1z"/>
<path class="st3" d="M297.1,98.7c2.8,0,5.5,0,8.2,0c0.5,0,0.6,0.1,0.6,0.6c0,1.8,0,1.8-1.8,1.8c-5.1,0-10.2,0-15.2,0
	c-0.6,0-0.8-0.2-0.8-0.8c0-1.6,0-1.6,1.6-1.6L297.1,98.7L297.1,98.7z"/>
<path class="st3" d="M284.6,96.3c-0.8,0-1.1-0.4-1.1-1.2c0-0.8,0.4-1.2,1.2-1.2c0.8,0,1.1,0.4,1.1,1.2S285.4,96.3,284.6,96.3
	L284.6,96.3z"/>
<path class="st3" d="M284.6,101.1c-0.8,0-1.2-0.4-1.2-1.1c0-0.8,0.4-1.2,1.2-1.2s1.2,0.4,1.2,1.1
	C285.8,100.6,285.4,101.1,284.6,101.1L284.6,101.1z"/>
<path class="st3" d="M326.8,109.6c-0.6-0.1-1.1-0.3-1.7-0.4c-0.2-0.1-0.2-0.2-0.2-0.5c0.7-2.9,1.5-5.7,2.1-8.6
	c0.1-0.5,0.4-0.4,0.7-0.4c0.6,0.2,1.3,0.2,1.6,0.5c0.3,0.3-0.2,1-0.3,1.6c-0.5,2.5-1.2,5-1.8,7.5C327.2,109.7,327,109.6,326.8,109.6
	L326.8,109.6z"/>
<path class="st3" d="M335.4,104.6c0.1,0.3-0.1,0.6-0.3,0.8c-0.7,0.7-1.5,1.5-2.2,2.2c-0.2,0.2-0.2,0.1-0.4,0
	c-0.1-0.1-0.2-0.2-0.2-0.2c-0.4-0.4-1.1-0.8-1.1-1.2c-0.1-0.5,0.7-0.8,1.1-1.2c0.3-0.3,0.2-0.4,0-0.7c-0.4-0.4-1.1-0.8-1-1.2
	c0.1-0.5,0.7-0.8,1.1-1.3c0.3-0.3,0.5-0.3,0.8,0c0.6,0.7,1.3,1.3,2,1.9C335.3,104,335.5,104.3,335.4,104.6L335.4,104.6z"/>
<path class="st3" d="M318.9,104.6c0-0.3,0.1-0.6,0.4-0.8c0.7-0.7,1.3-1.3,2-2c0.2-0.2,0.5-0.3,0.7,0c0,0,0,0,0,0.1
	c0.4,0.4,1.1,0.8,1.1,1.2c0.1,0.5-0.7,0.8-1.1,1.2c-0.3,0.3-0.3,0.4,0,0.7c0.4,0.4,1,0.8,1.1,1.2c0,0.5-0.7,0.8-1.1,1.2
	c-0.3,0.4-0.5,0.4-0.9,0c-0.6-0.6-1.2-1.2-1.8-1.8C319.1,105.3,318.9,105,318.9,104.6L318.9,104.6L318.9,104.6z"/>
<path class="st3" d="M332,88.1c-2.5,0-5.1,0-7.6,0c-0.5,0-0.7-0.1-0.7-0.6c0-1.8,0-1.8,1.8-1.8c4.7,0,9.4,0,14.1,0
	c0.6,0,0.8,0.2,0.7,0.8c0,1.6,0,1.6-1.7,1.6L332,88.1L332,88.1z"/>
<path class="st3" d="M335.5,83.3c-1.4,0-2.7,0-4.1,0c-0.5,0-0.6-0.1-0.6-0.6c0-1.8,0-1.8,1.8-1.8c2.4,0,4.8,0,7.1,0
	c0.4,0,0.6,0.1,0.6,0.6c-0.1,0.6,0.2,1.4-0.1,1.7c-0.3,0.3-1.1,0.1-1.7,0.1C337.5,83.3,336.5,83.3,335.5,83.3L335.5,83.3L335.5,83.3
	z"/>
<path class="st3" d="M326,83.3c-0.6,0-1.2,0-1.8,0c-0.4,0-0.5-0.1-0.5-0.5c0-1.9-0.1-1.9,1.8-1.9c0.8,0,1.6,0,2.4,0
	c0.5,0,0.6,0.2,0.6,0.6c0,1.8,0,1.8-1.8,1.8L326,83.3L326,83.3z"/>
<path class="st1" d="M36,0h108c8.8,0,16,7.2,16,16v108c0,8.8-7.2,16-16,16H36c-8.8,0-16-7.2-16-16V16C20,7.2,27.2,0,36,0z"/>
<path class="st2" d="M79,95.3v1.3h-2.6v8.4h-1.6v-8.4h-2.6v-1.3C72.2,95.3,79,95.3,79,95.3z M87.7,100.9c0,0.3,0,0.6-0.1,0.8h-5.9
	c0.1,0.6,0.3,1.1,0.7,1.5s0.9,0.6,1.5,0.6c0.9,0,1.5-0.4,1.8-1.1h1.7c-0.2,0.7-0.7,1.3-1.3,1.8c-0.6,0.4-1.4,0.7-2.3,0.7
	c-0.7,0-1.4-0.2-2-0.5c-0.6-0.3-1-0.8-1.4-1.4c-0.3-0.6-0.5-1.3-0.5-2.1s0.2-1.5,0.5-2.1c0.3-0.6,0.8-1.1,1.4-1.4
	c0.6-0.3,1.3-0.5,2-0.5s1.4,0.2,1.9,0.5s1,0.8,1.3,1.3S87.7,100.2,87.7,100.9L87.7,100.9z M86,100.4c0-0.6-0.2-1.1-0.6-1.4
	c-0.4-0.3-0.9-0.5-1.5-0.5c-0.6,0-1,0.2-1.4,0.5c-0.4,0.3-0.6,0.8-0.7,1.4H86z M92,105.1c-0.6,0-1.2-0.1-1.6-0.3
	c-0.5-0.2-0.8-0.5-1.1-0.9c-0.3-0.4-0.4-0.8-0.4-1.3h1.7c0,0.3,0.2,0.6,0.5,0.8c0.3,0.2,0.7,0.3,1.1,0.3s0.8-0.1,1-0.2
	c0.2-0.2,0.4-0.4,0.4-0.7c0-0.3-0.1-0.5-0.4-0.6c-0.3-0.1-0.7-0.3-1.3-0.5c-0.6-0.2-1.1-0.3-1.4-0.5s-0.7-0.4-0.9-0.7
	c-0.3-0.3-0.4-0.7-0.4-1.2c0-0.4,0.1-0.8,0.4-1.1c0.2-0.3,0.6-0.6,1-0.8c0.5-0.2,1-0.3,1.6-0.3c0.9,0,1.6,0.2,2.1,0.7
	c0.5,0.4,0.8,1,0.9,1.8h-1.6c0-0.3-0.2-0.6-0.4-0.8s-0.6-0.3-1-0.3s-0.7,0.1-1,0.2c-0.2,0.2-0.3,0.4-0.3,0.6c0,0.2,0.1,0.4,0.2,0.5
	s0.3,0.2,0.6,0.3c0.2,0.1,0.5,0.2,0.9,0.3c0.6,0.2,1,0.3,1.4,0.5c0.4,0.2,0.7,0.4,0.9,0.7c0.3,0.3,0.4,0.7,0.4,1.2
	c0,0.4-0.1,0.8-0.4,1.2s-0.6,0.6-1,0.8C93.2,105,92.6,105.1,92,105.1L92,105.1z M98.6,98.6v4.3c0,0.3,0.1,0.5,0.2,0.6
	c0.1,0.1,0.4,0.2,0.7,0.2h1v1.3h-1.3c-0.7,0-1.3-0.2-1.7-0.5s-0.6-0.9-0.6-1.6v-4.3h-0.9v-1.3H97v-1.9h1.6v1.9h1.9v1.3H98.6
	L98.6,98.6z M104.7,105.1c-0.6,0-1.2-0.1-1.6-0.3c-0.5-0.2-0.8-0.5-1.1-0.9c-0.3-0.4-0.4-0.8-0.4-1.3h1.7c0,0.3,0.2,0.6,0.5,0.8
	c0.3,0.2,0.7,0.3,1.1,0.3s0.8-0.1,1-0.2c0.2-0.2,0.4-0.4,0.4-0.7c0-0.3-0.1-0.5-0.4-0.6c-0.3-0.1-0.7-0.3-1.3-0.5
	c-0.6-0.2-1.1-0.3-1.4-0.5s-0.7-0.4-0.9-0.7c-0.3-0.3-0.4-0.7-0.4-1.2c0-0.4,0.1-0.8,0.4-1.1c0.2-0.3,0.6-0.6,1-0.8
	c0.5-0.2,1-0.3,1.6-0.3c0.9,0,1.6,0.2,2.1,0.7c0.5,0.4,0.8,1,0.9,1.8H106c0-0.3-0.2-0.6-0.4-0.8s-0.6-0.3-1-0.3s-0.7,0.1-1,0.2
	c-0.2,0.2-0.3,0.4-0.3,0.6c0,0.2,0.1,0.4,0.2,0.5c0.2,0.1,0.3,0.2,0.6,0.3c0.2,0.1,0.5,0.2,0.9,0.3c0.6,0.2,1,0.3,1.4,0.5
	c0.4,0.2,0.7,0.4,0.9,0.7c0.3,0.3,0.4,0.7,0.4,1.2c0,0.4-0.1,0.8-0.4,1.2s-0.6,0.6-1,0.8C105.9,105,105.3,105.1,104.7,105.1
	L104.7,105.1z M59,118.3v7.7h-1.6v-0.9c-0.2,0.3-0.6,0.6-1,0.8c-0.4,0.2-0.8,0.3-1.3,0.3c-0.6,0-1.2-0.1-1.6-0.4
	c-0.5-0.2-0.8-0.6-1.1-1.1c-0.3-0.5-0.4-1.1-0.4-1.8v-4.5h1.6v4.3c0,0.7,0.2,1.2,0.5,1.6c0.3,0.4,0.8,0.6,1.4,0.6s1.1-0.2,1.4-0.6
	c0.3-0.4,0.5-0.9,0.5-1.6v-4.3L59,118.3L59,118.3z M62.9,119.6v4.3c0,0.3,0.1,0.5,0.2,0.6c0.1,0.1,0.4,0.2,0.7,0.2h1v1.3h-1.3
	c-0.7,0-1.3-0.2-1.7-0.5c-0.4-0.3-0.6-0.9-0.6-1.6v-4.3h-0.9v-1.3h0.9v-1.9H63v1.9h1.9v1.3H62.9L62.9,119.6z M67.1,117.3
	c-0.3,0-0.5-0.1-0.7-0.3s-0.3-0.4-0.3-0.7s0.1-0.5,0.3-0.7s0.4-0.3,0.7-0.3s0.5,0.1,0.7,0.3s0.3,0.4,0.3,0.7s-0.1,0.5-0.3,0.7
	S67.4,117.3,67.1,117.3z M67.9,118.3v7.7h-1.6v-7.7H67.9z M71.6,115.6V126H70v-10.4H71.6z M74.5,117.3c-0.3,0-0.5-0.1-0.7-0.3
	s-0.3-0.4-0.3-0.7s0.1-0.5,0.3-0.7s0.4-0.3,0.7-0.3s0.5,0.1,0.7,0.3s0.3,0.4,0.3,0.7s-0.1,0.5-0.3,0.7S74.8,117.3,74.5,117.3z
	 M75.3,118.3v7.7h-1.6v-7.7H75.3z M80.2,126.1c-0.6,0-1.2-0.1-1.6-0.3c-0.5-0.2-0.8-0.5-1.1-0.9c-0.3-0.4-0.4-0.8-0.4-1.3h1.7
	c0,0.3,0.2,0.6,0.5,0.8c0.3,0.2,0.7,0.3,1.1,0.3s0.8-0.1,1-0.2c0.2-0.2,0.4-0.4,0.4-0.7c0-0.3-0.1-0.5-0.4-0.6
	c-0.3-0.1-0.7-0.3-1.3-0.5c-0.6-0.2-1.1-0.3-1.4-0.5s-0.7-0.4-0.9-0.7c-0.3-0.3-0.4-0.7-0.4-1.2c0-0.4,0.1-0.8,0.4-1.1
	c0.2-0.3,0.6-0.6,1-0.8c0.5-0.2,1-0.3,1.6-0.3c0.9,0,1.6,0.2,2.1,0.7c0.5,0.4,0.8,1,0.9,1.8h-1.6c0-0.3-0.2-0.6-0.4-0.8
	c-0.2-0.2-0.6-0.3-1-0.3s-0.7,0.1-1,0.2c-0.2,0.2-0.3,0.4-0.3,0.6c0,0.2,0.1,0.4,0.2,0.5s0.3,0.2,0.6,0.3c0.2,0.1,0.5,0.2,0.9,0.3
	c0.6,0.2,1,0.3,1.4,0.5c0.4,0.2,0.7,0.4,0.9,0.7c0.3,0.3,0.4,0.7,0.4,1.2c0,0.4-0.1,0.8-0.4,1.2s-0.6,0.6-1,0.8
	C81.3,126,80.8,126.1,80.2,126.1L80.2,126.1z M84.3,122.1c0-0.8,0.2-1.5,0.5-2.1c0.3-0.6,0.8-1.1,1.3-1.4c0.6-0.3,1.2-0.5,1.8-0.5
	c0.6,0,1.1,0.1,1.6,0.4c0.5,0.2,0.8,0.5,1.1,0.9v-1.1h1.6v7.7h-1.6v-1.2c-0.3,0.4-0.6,0.7-1.1,0.9c-0.5,0.2-1,0.4-1.6,0.4
	c-0.7,0-1.3-0.2-1.8-0.5c-0.6-0.3-1-0.8-1.3-1.4C84.5,123.5,84.3,122.9,84.3,122.1L84.3,122.1z M90.6,122.1c0-0.5-0.1-1-0.3-1.4
	c-0.2-0.4-0.5-0.7-0.8-0.9c-0.3-0.2-0.7-0.3-1.2-0.3s-0.8,0.1-1.2,0.3c-0.3,0.2-0.6,0.5-0.9,0.9c-0.2,0.4-0.3,0.8-0.3,1.4
	s0.1,1,0.3,1.4c0.2,0.4,0.5,0.7,0.9,0.9s0.8,0.3,1.2,0.3s0.8-0.1,1.2-0.3c0.3-0.2,0.6-0.5,0.8-0.9C90.5,123.1,90.6,122.6,90.6,122.1
	L90.6,122.1z M96.2,119.6v4.3c0,0.3,0.1,0.5,0.2,0.6c0.1,0.1,0.4,0.2,0.7,0.2h1v1.3h-1.3c-0.7,0-1.3-0.2-1.7-0.5s-0.6-0.9-0.6-1.6
	v-4.3h-0.9v-1.3h0.9v-1.9h1.6v1.9h1.9v1.3H96.2L96.2,119.6z M106.6,121.9c0,0.3,0,0.6-0.1,0.8h-5.9c0.1,0.6,0.3,1.1,0.7,1.5
	s0.9,0.6,1.5,0.6c0.9,0,1.5-0.4,1.8-1.1h1.7c-0.2,0.7-0.7,1.3-1.3,1.8c-0.6,0.4-1.4,0.7-2.3,0.7c-0.7,0-1.4-0.2-2-0.5
	c-0.6-0.3-1-0.8-1.4-1.4c-0.3-0.6-0.5-1.3-0.5-2.1s0.2-1.5,0.5-2.1c0.3-0.6,0.8-1.1,1.4-1.4c0.6-0.3,1.3-0.5,2-0.5s1.4,0.2,1.9,0.5
	s1,0.8,1.3,1.3C106.5,120.5,106.6,121.2,106.6,121.9L106.6,121.9z M104.9,121.4c0-0.6-0.2-1.1-0.6-1.4c-0.4-0.4-0.9-0.5-1.5-0.5
	c-0.6,0-1,0.2-1.4,0.5c-0.4,0.3-0.6,0.8-0.7,1.4H104.9z M115.2,118.3v7.7h-1.6v-0.9c-0.2,0.3-0.6,0.6-1,0.8
	c-0.4,0.2-0.8,0.3-1.3,0.3c-0.6,0-1.2-0.1-1.6-0.4c-0.5-0.2-0.8-0.6-1.1-1.1c-0.3-0.5-0.4-1.1-0.4-1.8v-4.5h1.6v4.3
	c0,0.7,0.2,1.2,0.5,1.6c0.3,0.4,0.8,0.6,1.4,0.6s1.1-0.2,1.4-0.6c0.4-0.4,0.5-0.9,0.5-1.6v-4.3L115.2,118.3L115.2,118.3z
	 M118.9,119.4c0.2-0.4,0.5-0.7,0.9-0.9c0.4-0.2,0.8-0.3,1.4-0.3v1.7h-0.4c-0.6,0-1.1,0.2-1.4,0.5c-0.3,0.3-0.5,0.9-0.5,1.7v4.1h-1.6
	v-7.7h1.6L118.9,119.4L118.9,119.4z M125.4,126.1c-0.6,0-1.2-0.1-1.6-0.3c-0.5-0.2-0.8-0.5-1.1-0.9c-0.3-0.4-0.4-0.8-0.4-1.3h1.7
	c0,0.3,0.2,0.6,0.5,0.8c0.3,0.2,0.7,0.3,1.1,0.3s0.8-0.1,1-0.2c0.2-0.2,0.4-0.4,0.4-0.7c0-0.3-0.1-0.5-0.4-0.6
	c-0.3-0.1-0.7-0.3-1.3-0.5c-0.6-0.2-1.1-0.3-1.4-0.5s-0.7-0.4-0.9-0.7c-0.3-0.3-0.4-0.7-0.4-1.2c0-0.4,0.1-0.8,0.4-1.1
	c0.2-0.3,0.6-0.6,1-0.8c0.5-0.2,1-0.3,1.6-0.3c0.9,0,1.6,0.2,2.1,0.7c0.5,0.4,0.8,1,0.9,1.8h-1.6c0-0.3-0.2-0.6-0.4-0.8
	c-0.2-0.2-0.6-0.3-1-0.3s-0.7,0.1-1,0.2c-0.2,0.2-0.3,0.4-0.3,0.6c0,0.2,0.1,0.4,0.2,0.5s0.3,0.2,0.6,0.3c0.2,0.1,0.5,0.2,0.9,0.3
	c0.6,0.2,1,0.3,1.4,0.5c0.4,0.2,0.7,0.4,0.9,0.7c0.3,0.3,0.4,0.7,0.4,1.2c0,0.4-0.1,0.8-0.4,1.2c-0.2,0.3-0.6,0.6-1,0.8
	C126.6,126,126,126.1,125.4,126.1L125.4,126.1z"/>
<path class="st3" d="M128.1,65.1c-1.3,0.7-2.8,0.5-4.2,0.5c-4.3,0-8.5,0-12.8,0c-0.7,0-1.4-0.6-1.4-1.3c-0.1-0.8,0.4-1.5,1.2-1.6
	c0.3,0,0.6,0,1,0c4.2,0,8.4,0,12.6,0c0.6,0,0.7-0.2,0.7-0.7c0-1.9-0.4-3.7-1.7-5.2c-1.1-1.2-2.5-1.9-4.2-2.1
	c-2.4-0.3-4.7-0.1-7.1-0.1c-0.5,0-0.7,0-0.9,0.7c-0.8,2.9-2,5.5-3.9,7.9c-1.5,1.8-3.1,3.5-5.1,4.8c-1.4,0.9-2.9,1.8-4.5,2.3
	c-1.8,0.7-3.7,1.2-5.7,1.4c-1.9,0.1-3.9,0.2-5.9-0.2c-1.1-0.2-2.1-0.4-3.1-0.8c-1.2-0.4-2.3-0.9-3.5-1.5c-1.8-0.9-3.4-2.2-4.9-3.6
	c-0.4-0.3-0.8-0.8-1.1-1.2c-0.3-0.4-0.5-0.3-0.8,0c-1.6,1.7-3.3,3.3-4.9,4.9c-3.7,3.7-7.4,7.4-11.1,11.1c-1.8,1.8-1,3.9,1,4.5
	c1,0.3,1.9-0.1,2.6-0.8c3-2.9,5.9-5.9,8.9-8.9c0.8-0.8,1.6-0.9,2.3-0.4c0.7,0.5,0.8,1.5,0.2,2.1c-3.3,3.3-6.5,6.5-9.8,9.8
	c-0.7,0.7-1.7,0.9-2.7,1.3h-1.9c-0.9-0.4-1.9-0.7-2.6-1.4c-0.5-0.6-1-1.1-1.3-1.8c-0.2-0.6-0.5-1.2-0.6-1.9c-0.1-1.9,0.7-3.4,2-4.7
	c5.3-5.3,10.6-10.7,16-16c0.5-0.5,0.6-0.8,0.2-1.4C69.9,59,69.2,57,68.7,55c-0.1-0.3-0.2-0.5-0.5-0.5c-2.3,0-4.6-0.1-6.9,0
	c-3.4,0.2-5.5,2.2-6.3,5.5c-0.2,0.7,0,1.5,0,2.3c0,0.4,0.3,0.3,0.5,0.3c1.8,0,3.6,0,5.4,0c1.2,0,1.8,0.8,1.6,1.8
	c-0.2,0.8-0.8,1.1-1.4,1.1c-2.7,0.1-5.3,0.1-8,0c-0.6,0-1.2-0.6-1.2-1.1c0-2.2-0.3-4.5,0.5-6.7c0.9-2.1,2.2-3.8,4.2-4.9
	c0.7-0.4,1.4-0.7,2.2-0.9c0.3-0.1,0.5-0.2,0.3-0.6c-0.7-1.2-0.9-2.5-0.9-3.8c0-2.5,1-4.7,3.4-5.9c2.3-1.2,5.2-1,7.3,1
	c0.4-0.9,0.7-1.8,1.2-2.7c1.5-2.9,3.4-5.5,6.1-7.5c2.6-2,5.4-3.4,8.6-4.2c2.2-0.5,4.5-0.6,6.8-0.5c2.7,0.2,5.3,0.9,7.8,2.1
	c2.2,1.1,4.2,2.5,6,4.2c2.3,2.3,4,5.1,5.2,8.1c0.2,0.4,0.2,0.4,0.5,0.1c1.8-1.4,3.7-1.8,5.9-1.2c2.4,0.7,3.8,2.3,4.3,4.7
	c0.4,1.8,0.3,3.7-0.6,5.4c-0.2,0.5-0.2,0.6,0.3,0.8c1.7,0.5,3.2,1.3,4.4,2.6c1.2,1.3,1.9,2.8,2.3,4.4c0.1,0.2,0.1,0.5,0.3,0.7
	L128.1,65.1L128.1,65.1L128.1,65.1z M71,49.8c0,5.3,2.1,10.1,6.2,13.9c4.1,3.8,9,5.4,14.5,4.9c5.8-0.5,10.5-3.3,13.9-8
	c3.1-4.2,4.1-9.2,3.2-14.3c-0.8-4.4-3-8.3-6.5-11.3C97.6,31.2,92.1,30,86.2,31c-4.2,0.7-7.9,3-10.7,6.3C72.6,40.9,71,44.9,71,49.8
	L71,49.8z M68.1,47.6c0.1-0.3-0.1-0.7-0.2-1.1c-0.2-1.4-1.2-2.2-2.9-2.6c-0.8-0.2-2.3,0.4-2.9,1.3c-0.9,1.5-0.9,2.9-0.3,4.5
	c0.7,1.7,2.8,2.4,4.4,1.6C67.6,50.5,68.1,49.2,68.1,47.6L68.1,47.6z M112.1,47.6c0,0.3,0,0.7,0,1c0.1,1.3,0.8,2.2,1.9,2.7
	c1.1,0.5,2.4,0.2,3.3-0.5c1.3-1.1,1.3-2.6,1.2-4.2c-0.2-2.1-3.1-3.5-5-2.2C112.3,45.2,112,46.3,112.1,47.6L112.1,47.6z"/>
<path class="st3" d="M88.6,15.9c0-0.9,0-1.8,0-2.7c0-0.7,0.4-1,1-1.1c0.9-0.2,1.7,0.2,1.8,0.8c0.1,0.5,0.2,0.9,0.2,1.4
	c-0.1,1.5,0.2,3-0.2,4.6c-0.2,0.8-0.8,1.2-1.7,1.1c-0.6-0.1-1.1-0.7-1.1-1.4C88.6,17.7,88.6,16.8,88.6,15.9L88.6,15.9L88.6,15.9z"/>
<path class="st3" d="M101.4,17.4c0.8-0.1,1.3,0.1,1.6,0.7c0.2,0.6,0.2,1.2-0.2,1.7c-0.9,1-1.8,2-3,2.9c-0.5,0.4-1.1,0.3-1.5-0.1
	c-0.5-0.4-0.9-0.9-0.6-1.6c0.1-0.3,0.3-0.6,0.5-0.8c0.9-0.9,1.8-1.7,2.6-2.7C100.9,17.1,101.2,17.5,101.4,17.4L101.4,17.4
	L101.4,17.4z"/>
<path class="st3" d="M78.4,17.4c0.5-0.1,0.9,0.1,1.3,0.5c0.8,0.8,1.6,1.6,2.4,2.4c0.7,0.7,0.7,1.6,0,2.2c-0.6,0.6-1.4,0.6-2.1-0.1
	c-0.9-0.9-1.7-1.7-2.6-2.6c-0.4-0.4-0.6-1-0.3-1.5C77.4,17.7,77.7,17.2,78.4,17.4L78.4,17.4z"/>
<path class="st3" d="M90.1,22c0.8,0,1.5,0.6,1.4,1.4c0,0.8-0.7,1.5-1.5,1.5c-0.9,0-1.5-0.6-1.4-1.5C88.6,22.4,89,22,90.1,22L90.1,22
	L90.1,22z"/>
<path class="st3" d="M74.7,70.6c0.9,0,1.4,0.5,1.4,1.4c0,0.8-0.7,1.6-1.6,1.6c-0.7,0-1.3-0.7-1.3-1.6C73.3,71,73.7,70.6,74.7,70.6z"
	/>
<path class="st3" d="M74,49.7c-0.1-8.7,7-15.5,14.7-15.9c10.7-0.5,16.4,7.1,17.3,14.1c0.6,4.6-0.8,9-4,12.5c-3,3.2-6.7,5-11.1,5.3
	C81.3,66.4,73.8,58.1,74,49.7L74,49.7L74,49.7z M79.8,57.8c1.2-1.8,2.7-3.2,4.7-4.2c0.9-0.5,1-0.5,0.3-1.4c-0.1-0.1-0.1-0.2-0.2-0.3
	c-0.6-1.4-0.8-2.8-0.7-4.3c0.2-1.5,0.7-2.8,1.7-3.9c1.5-1.5,3.3-2,5.3-1.7c2.2,0.3,4,1.9,4.7,3.8c0.5,1.5,0.4,3,0.3,4.4
	c-0.1,0.8-0.4,1.8-0.9,2.3c-0.7,0.7-0.2,0.7,0.2,0.9c1.9,0.8,3.4,2.1,4.6,3.8c0.5,0.7,0.7,0.5,1,0c0-0.1,0.1-0.1,0.1-0.2
	c1.5-2.4,2.2-5,2.1-7.9c-0.1-1.4-0.3-2.7-0.8-4c-1.2-3-3.2-5.3-6.1-6.9c-2.6-1.4-5.3-1.8-8.2-1.3c-2.5,0.3-4.8,1.3-6.6,3
	c-2,1.8-3.4,4-4.1,6.7c-0.5,2-0.5,4-0.1,6.1C77.7,54.6,78.5,56.2,79.8,57.8L79.8,57.8L79.8,57.8z M90.5,62.7c0.7,0,1.1-0.1,1.5-0.1
	c2.1-0.3,4-1.1,5.8-2.4c0.2-0.2,0.4-0.2,0.2-0.6c-1.1-1.8-2.6-3-4.5-3.8c-1.5-0.7-3.2-0.8-4.8-0.6c-2.8,0.5-5.1,2-6.6,4.5
	C81.9,60,82,60,82.2,60.1c1,0.8,2.1,1.4,3.3,1.8C87.2,62.7,88.9,63,90.5,62.7L90.5,62.7L90.5,62.7z M93.2,48.4
	c0.1-0.4-0.1-0.8-0.2-1.2C92.9,46,92,45,90.7,44.8c-0.8-0.2-2.7,0.4-3.2,1.2c-1,1.7-0.9,4,0.5,5.4c0.6,0.6,1.5,1,2.2,0.7
	c0.8-0.3,2-0.2,2.1-1.5C93.3,50.1,93,49.1,93.2,48.4L93.2,48.4L93.2,48.4z"/>
<path class="st1" d="M246,239h108c8.8,0,16,7.2,16,16v108c0,8.8-7.2,16-16,16H246c-8.8,0-16-7.2-16-16V255
	C230,246.2,237.2,239,246,239z"/>
<path class="st2" d="M270.2,340.3l-2.9,9.7h-1.8l-2-7.4l-2.2,7.4h-1.8l-2.8-9.7h1.7l2,7.9l2.2-7.9h1.8l2,7.9l2-7.9H270.2
	L270.2,340.3z M272.3,341.3c-0.3,0-0.5-0.1-0.7-0.3c-0.2-0.2-0.3-0.4-0.3-0.7s0.1-0.5,0.3-0.7s0.4-0.3,0.7-0.3s0.5,0.1,0.7,0.3
	s0.3,0.4,0.3,0.7s-0.1,0.5-0.3,0.7C272.8,341.2,272.6,341.3,272.3,341.3z M273.1,342.3v7.7h-1.6v-7.7H273.1z M276.8,343.4
	c0.2-0.4,0.5-0.7,0.9-0.9c0.4-0.2,0.9-0.3,1.4-0.3v1.6h-0.4c-0.6,0-1.1,0.2-1.4,0.5c-0.3,0.3-0.5,0.9-0.5,1.6v4.1h-1.6v-7.7h1.6
	L276.8,343.4L276.8,343.4z M287.7,345.9c0,0.3,0,0.5-0.1,0.8h-5.9c0,0.6,0.3,1.1,0.7,1.5c0.4,0.4,0.9,0.6,1.5,0.6
	c0.9,0,1.5-0.4,1.8-1.1h1.7c-0.2,0.7-0.7,1.3-1.3,1.8c-0.6,0.5-1.4,0.7-2.3,0.7c-0.7,0-1.4-0.2-2-0.5c-0.6-0.3-1-0.8-1.4-1.4
	c-0.3-0.6-0.5-1.3-0.5-2.1s0.2-1.5,0.5-2.1c0.3-0.6,0.8-1.1,1.4-1.4c0.6-0.3,1.3-0.5,2-0.5s1.4,0.2,2,0.5s1,0.8,1.3,1.3
	C287.5,344.5,287.7,345.2,287.7,345.9L287.7,345.9z M286,345.4c0-0.6-0.2-1.1-0.6-1.4c-0.4-0.4-0.9-0.5-1.5-0.5
	c-0.5,0-1,0.2-1.4,0.5s-0.6,0.8-0.7,1.4H286L286,345.4z M292.5,343.6H291v6.4h-1.6v-6.4h-0.9v-1.3h0.9v-0.5c0-0.9,0.2-1.5,0.7-1.9
	c0.5-0.4,1.2-0.6,2.2-0.6v1.3c-0.5,0-0.8,0.1-1,0.3c-0.2,0.2-0.3,0.5-0.3,0.9v0.5h1.4L292.5,343.6L292.5,343.6z M295.5,343.4
	c0.2-0.4,0.5-0.7,0.9-0.9c0.4-0.2,0.9-0.3,1.4-0.3v1.6h-0.4c-0.6,0-1.1,0.2-1.4,0.5c-0.3,0.3-0.5,0.9-0.5,1.6v4.1h-1.6v-7.7h1.6
	L295.5,343.4L295.5,343.4z M298.7,346.1c0-0.8,0.2-1.5,0.5-2.1c0.3-0.6,0.8-1.1,1.3-1.4c0.6-0.3,1.2-0.5,1.9-0.5
	c0.6,0,1.1,0.1,1.6,0.4c0.5,0.2,0.8,0.5,1.1,0.9v-1.1h1.6v7.7H305v-1.1c-0.3,0.4-0.6,0.7-1.1,0.9c-0.5,0.2-1,0.4-1.6,0.4
	c-0.7,0-1.3-0.2-1.8-0.5c-0.5-0.4-1-0.8-1.3-1.4C298.9,347.6,298.7,346.9,298.7,346.1L298.7,346.1z M305,346.1c0-0.5-0.1-1-0.3-1.4
	c-0.2-0.4-0.5-0.7-0.9-0.9c-0.4-0.2-0.7-0.3-1.1-0.3s-0.8,0.1-1.1,0.3c-0.4,0.2-0.6,0.5-0.9,0.9c-0.2,0.4-0.3,0.8-0.3,1.4
	s0.1,1,0.3,1.4c0.2,0.4,0.5,0.7,0.9,0.9c0.4,0.2,0.8,0.3,1.1,0.3s0.8-0.1,1.1-0.3s0.6-0.5,0.9-0.9C304.9,347.1,305,346.6,305,346.1
	L305,346.1z M318.1,342.2c0.6,0,1.1,0.1,1.6,0.4c0.5,0.2,0.9,0.6,1.1,1.1c0.3,0.5,0.4,1.1,0.4,1.8v4.5h-1.6v-4.3
	c0-0.7-0.2-1.2-0.5-1.6c-0.4-0.4-0.8-0.6-1.4-0.6s-1.1,0.2-1.4,0.6c-0.4,0.4-0.5,0.9-0.5,1.6v4.3h-1.6v-4.3c0-0.7-0.2-1.2-0.5-1.6
	c-0.4-0.4-0.8-0.6-1.4-0.6s-1.1,0.2-1.4,0.6c-0.4,0.4-0.5,0.9-0.5,1.6v4.3h-1.6v-7.7h1.6v0.9c0.3-0.3,0.6-0.6,1-0.7
	c0.4-0.2,0.8-0.3,1.3-0.3c0.6,0,1.2,0.1,1.6,0.4c0.5,0.3,0.9,0.6,1.1,1.1c0.2-0.5,0.6-0.8,1.1-1.1S317.5,342.2,318.1,342.2
	L318.1,342.2z M324.1,341.3c-0.3,0-0.5-0.1-0.7-0.3s-0.3-0.4-0.3-0.7s0.1-0.5,0.3-0.7c0.2-0.2,0.4-0.3,0.7-0.3s0.5,0.1,0.7,0.3
	c0.2,0.2,0.3,0.4,0.3,0.7s-0.1,0.5-0.3,0.7S324.4,341.3,324.1,341.3z M324.9,342.3v7.7h-1.6v-7.7H324.9z M330.8,342.1
	c0.6,0,1.1,0.1,1.6,0.4c0.5,0.2,0.9,0.6,1.1,1.1c0.3,0.5,0.4,1.1,0.4,1.8v4.5h-1.6v-4.3c0-0.7-0.2-1.2-0.5-1.6
	c-0.4-0.4-0.8-0.6-1.4-0.6s-1.1,0.2-1.4,0.6c-0.4,0.4-0.5,0.9-0.5,1.6v4.3H327v-7.7h1.6v0.9c0.3-0.3,0.6-0.6,1-0.7
	C330,342.2,330.4,342.1,330.8,342.1L330.8,342.1z M339.2,342.1c0.6,0,1.1,0.1,1.6,0.4c0.5,0.2,0.8,0.5,1.1,0.9v-1.1h1.6v7.8
	c0,0.7-0.1,1.3-0.5,1.9c-0.3,0.6-0.7,1-1.3,1.3c-0.6,0.3-1.2,0.5-2,0.5c-1,0-1.9-0.2-2.6-0.7s-1.1-1.1-1.2-2h1.6
	c0.1,0.4,0.4,0.7,0.8,1c0.4,0.2,0.9,0.4,1.4,0.4c0.6,0,1.2-0.2,1.5-0.6c0.4-0.4,0.6-1,0.6-1.7v-1.3c-0.3,0.4-0.6,0.7-1.1,0.9
	c-0.5,0.2-1,0.4-1.6,0.4c-0.7,0-1.3-0.2-1.9-0.5c-0.5-0.4-1-0.8-1.3-1.4c-0.3-0.6-0.5-1.3-0.5-2.1s0.2-1.5,0.5-2.1
	c0.3-0.6,0.8-1.1,1.3-1.4C337.8,342.3,338.5,342.1,339.2,342.1L339.2,342.1z M341.8,346.1c0-0.5-0.1-1-0.3-1.4
	c-0.2-0.4-0.5-0.7-0.9-0.9s-0.7-0.3-1.1-0.3s-0.8,0.1-1.1,0.3c-0.4,0.2-0.6,0.5-0.9,0.9c-0.2,0.4-0.3,0.8-0.3,1.4s0.1,1,0.3,1.4
	c0.2,0.4,0.5,0.7,0.9,0.9c0.4,0.2,0.8,0.3,1.1,0.3s0.8-0.1,1.1-0.3s0.6-0.5,0.9-0.9C341.7,347.1,341.8,346.6,341.8,346.1
	L341.8,346.1z"/>
<path class="st3" d="M263,323.5v-63.8c0.3-0.4,0.3-0.9,0.5-1.4c1-1.6,2.6-2.3,4.5-2.3c21.9,0,43.7,0,65.6,0c1.6,0,3,0.5,4,1.7
	c0.5,0.6,0.7,1.3,1.1,2v63.8c-0.2,0-0.1,0.2-0.2,0.3c-0.9,2-2.5,3.3-4.8,3.3c-8.3,0-16.5,0-24.8,0c-13.9,0-27.7,0-41.5,0
	c-1.1,0-2-0.5-2.9-1.2C263.8,325.1,263.4,324.3,263,323.5L263,323.5L263,323.5z M300.7,324.8L300.7,324.8c11.1,0,22.1,0,33.2,0
	c1.3,0,2-0.6,2.4-1.6c0.2-0.4,0.2-0.9,0.2-1.3c0-16.5,0-33,0-49.5c0-0.7-0.2-0.8-0.8-0.8c-19.8,0-39.7,0-59.5,0c-0.2,0-0.4,0-0.6,0
	c-0.6,0-1.1-0.3-1.2-0.9c-0.1-0.6,0.2-1.1,0.9-1.3c0.3-0.1,0.7-0.1,1-0.1c19.8,0,39.7,0,59.5,0c0.5,0,0.7-0.1,0.7-0.7
	c0-2.5,0-5,0-7.5c0-0.5-0.1-0.9-0.3-1.3c-0.5-1.3-1.6-1.5-2.8-1.5c-21.8,0-43.7,0-65.5,0c0,0-0.1,0-0.1,0c-1.4,0.1-2.7,0.9-2.6,2.6
	c0.1,2.6,0,5.2,0,7.8c0,0.5,0.1,0.6,0.6,0.6c1.7,0,3.4,0,5.1,0c0.4,0,0.8,0.2,1.1,0.3c0.3,0.2,0.6,0.6,0.4,1
	c-0.2,0.5-0.5,0.9-1.2,0.9c-1.8,0-3.6,0-5.4,0c-0.5,0-0.6,0.1-0.6,0.7c0,16.8,0,33.7,0,50.5c0,0.2,0,0.5,0.1,0.7
	c0.5,1,1.3,1.5,2.4,1.5C278.7,324.8,289.7,324.8,300.7,324.8L300.7,324.8L300.7,324.8z"/>
<path class="st3" d="M300.6,274.6c9.3,0,18.5,0,27.8,0c0.3,0,0.6,0,0.9,0.1c0.8,0.1,1.1,0.6,1.1,1.3c0,7,0,14,0,21
	c0,0.4-0.1,0.8-0.1,1.2c-0.1,0.5-0.8,0.9-1.4,0.8c-0.3,0-0.5,0-0.8,0c-18.3,0-36.7,0-55,0c-0.3,0-0.6,0-0.9,0c-0.6,0-1-0.4-1-1
	c0-7.4,0-14.7,0-22.1c0-1,0.4-1.3,1.5-1.3C282.1,274.7,291.3,274.7,300.6,274.6L300.6,274.6L300.6,274.6z M304,286.8
	c0.1,0.1,0.2,0.2,0.2,0.2c2.8,1.1,5.6,2.2,8.4,3.3c2.5,1,4.9,2,7.4,2.9c2.5,1,4.9,1.9,7.4,2.8c0.8,0.3,0.8,0.3,0.8-0.5v-18.2
	C320.1,280.6,312,283.7,304,286.8L304,286.8z M273.6,296.2c8.1-3,16.1-6.2,24.2-9.4c-8.2-3.2-16.1-6.3-24.2-9.4V296.2L273.6,296.2z
	 M278.6,276.9c0,0,0,0.1,0,0.1c2.4,0.9,4.7,1.9,7,2.8c4.6,1.8,9.2,3.6,13.9,5.4c0.5,0.2,1,0.7,1.5,0.5c0.9-0.4,1.9-0.7,2.8-1.1
	c2.3-0.9,4.5-1.8,6.8-2.6c1.8-0.7,3.5-1.4,5.3-2c1.4-0.5,2.8-1.1,4.2-1.6c1-0.4,2.1-0.7,3.1-1.3L278.6,276.9L278.6,276.9z
	 M279,296.6c0,0.1,0,0.1,0,0.2h44.1c-0.2-0.1-0.3-0.2-0.5-0.2c-1.5-0.6-2.9-1.1-4.4-1.7c-3.6-1.4-7.2-2.8-10.9-4.2
	c-1.7-0.6-3.4-1.3-5-1.9c-0.7-0.3-1.4-0.7-2.1-0.4c-2.5,0.9-5,1.9-7.4,2.9c-1.7,0.7-3.5,1.3-5.2,2
	C284.7,294.3,281.8,295.5,279,296.6L279,296.6L279,296.6z"/>
<path class="st3" d="M285.1,322.5H273c-0.3,0-0.6,0-1-0.1c-0.5-0.2-0.7-0.4-0.7-1c0-6.5,0-13,0-19.4c0-1,0.4-1.4,1.4-1.4
	c0.6,0,1.2,0,1.8,0h22.8c1.2,0,1.6,0.4,1.6,1.6c0,6.2,0,12.3,0,18.5c0,1.5-0.3,1.8-1.8,1.8L285.1,322.5L285.1,322.5z M275.9,320.3
	c6.1,0,12.3,0,18.4,0h0.1c0,0-0.1-0.1-0.1-0.1c-1.1-0.8-2.2-1.7-3.2-2.5c-1.9-1.4-3.7-2.9-5.6-4.3c-0.4-0.3-0.6-0.3-1,0
	c-1.7,1.3-3.4,2.6-5.1,4C278.2,318.3,276.9,319.1,275.9,320.3c-0.1-0.1-0.2,0-0.2,0C275.8,320.4,275.8,320.3,275.9,320.3
	L275.9,320.3z M296.6,311.6c0-2.3,0-4.6,0-7c0-0.1,0.1-0.4-0.1-0.5c-0.1,0-0.2,0-0.3,0.1c-0.6,0.5-1.3,1-1.9,1.4
	c-1.6,1.3-3.3,2.5-4.9,3.8c-0.7,0.6-1.5,1.1-2.2,1.7c-0.2,0.2-0.5,0.4-0.1,0.6c0.5,0.3,0.9,0.7,1.3,1c2.5,2,5.1,3.9,7.6,5.9
	c0.1,0.1,0.2,0.3,0.4,0.2c0.3-0.1,0.1-0.3,0.1-0.5C296.6,316.2,296.6,313.9,296.6,311.6L296.6,311.6z M273.6,304.1v14.9
	c0.1,0.1,0.2,0,0.3-0.1c1-0.8,2-1.7,3.1-2.5c2-1.5,3.9-3,5.8-4.5c0.5-0.4,0.2-0.5,0-0.7c-1-0.8-2-1.5-3-2.3
	C277.7,307.4,275.7,305.8,273.6,304.1L273.6,304.1L273.6,304.1z M275.6,302.9c1.5,1.1,2.8,2.1,4.1,3.2c1.7,1.3,3.4,2.6,5,3.9
	c0.3,0.2,0.4,0.2,0.6,0c1.4-1.1,2.8-2.1,4.2-3.2c1.6-1.2,3.2-2.5,4.9-3.8H275.6L275.6,302.9z"/>
<path class="st3" d="M325.7,320c-2-1.5-3.9-3-5.8-4.5c-1-0.7-1.9-1.5-2.8-2.2c-0.4-0.3-0.6-0.2-1,0c-2.3,1.8-4.6,3.6-6.9,5.4
	c-0.6,0.5-1.3,0.9-1.8,1.5c-0.1,0-0.1,0-0.1,0.1c0,0,0.1,0,0.1,0c2.9,0,5.8,0,8.6,0c0.8,0,1.4,0.4,1.4,1.1c0,0.8-0.4,1.2-1.3,1.2
	c-4,0-8.1,0-12.1,0c-0.8,0-1.1-0.4-1.1-1.2c0-2.7,0-5.3,0-8v-11c0-1.4,0.2-1.6,1.6-1.6c8.1,0,16.1,0,24.2,0c1.5,0,1.8,0.6,1.8,1.8
	c0,6,0,12.1,0,18.1c0,0.4,0,0.7-0.1,1.1c-0.2,0.7-0.7,0.9-1.3,0.9c-2.9,0-5.7,0-8.6,0c-0.6,0-1.1-0.4-1.1-1.1c0-0.6,0.5-1.1,1.1-1.1
	c1.8,0,3.5,0,5.2,0c0.1,0,0.2,0.1,0.3-0.1C325.9,320.1,325.8,320,325.7,320L325.7,320L325.7,320z M328.2,304.2
	c-1.5,0.9-2.9,2-4.2,3.1c-1.7,1.4-3.5,2.7-5.3,4c-0.2,0.2-0.4,0.3,0,0.6c2.5,1.9,5,4,7.6,5.9c0.6,0.4,1.1,1,1.9,1.3L328.2,304.2
	L328.2,304.2L328.2,304.2z M314.8,311.6c-3.2-2.5-6.4-5-9.6-7.5v14.9C308.4,316.5,311.6,314.1,314.8,311.6z M325.9,302.9h-18.8
	c0.5,0.2,0.6,0.5,0.9,0.6c2.8,2.1,5.5,4.2,8.2,6.3c0.3,0.3,0.5,0.2,0.8,0c1.7-1.4,3.5-2.7,5.2-4.1
	C323.4,304.9,324.6,303.9,325.9,302.9z"/>
<path class="st3" d="M316.4,262.6c4.4,0,8.8,0,13.2,0c1,0,1.3,0.4,1.3,1.3c0,0.5-0.3,0.7-0.7,0.9c-0.3,0.1-0.5,0.1-0.8,0.1
	c-8.7,0-17.4,0-26.1,0c-0.3,0-0.5,0-0.8-0.1c-0.6-0.2-0.9-0.6-0.8-1.2c0.1-0.5,0.4-0.9,1-0.9c0.5,0,1.1,0,1.6,0H316.4L316.4,262.6z"
	/>
<path class="st3" d="M281.7,260.1c2.2-0.3,3.9,1.7,3.8,3.6c-0.1,2.2-1.5,3.6-3.7,3.8c-1.9,0.1-3.9-1.9-3.8-3.8
	C278,262,279.6,259.8,281.7,260.1L281.7,260.1z M281.7,262.4c-0.9,0-1.5,0.5-1.5,1.4c0,0.7,0.8,1.4,1.5,1.5c1,0.1,1.6-0.9,1.5-1.5
	C283.2,262.8,282.5,262.2,281.7,262.4L281.7,262.4L281.7,262.4z"/>
<path class="st3" d="M290.5,260.1c2,0,3.6,1.4,3.7,3.1c0.1,1.2-0.2,2.3-1,3.2c-0.7,0.7-1.6,1.1-2.6,1.1c-2.2,0-3.8-1.7-3.8-3.7
	C286.8,261.9,288.3,259.9,290.5,260.1L290.5,260.1z M292,263.7c0-0.9-0.5-1.5-1.5-1.5c-0.7,0-1.4,0.8-1.4,1.5c0,0.8,0.6,1.4,1.5,1.4
	C291.5,265.2,292,264.6,292,263.7L292,263.7L292,263.7z"/>
<path class="st3" d="M269.2,263.7c0-2.4,1.4-3.5,4.2-3.5c1.5,0,3.2,1.7,3.2,3.7c-0.1,2-1.8,3.5-3.4,3.5
	C270.7,267.4,269.2,266,269.2,263.7z M272.9,262.4c-1,0-1.5,0.4-1.5,1.4c0,0.9,0.5,1.5,1.4,1.5c0.9,0,1.5-0.5,1.5-1.4
	C274.4,262.9,273.8,262.4,272.9,262.4L272.9,262.4z"/>
<path class="st5" d="M325.7,320c0.1,0,0.3,0.1,0.2,0.2c0,0.2-0.2,0.1-0.3,0.1C325.7,320.2,325.7,320.1,325.7,320z"/>
<path class="st5" d="M307.4,320.3c0,0-0.1,0-0.1,0c0-0.1,0-0.1,0.1-0.1L307.4,320.3L307.4,320.3L307.4,320.3z"/>
<path class="st5" d="M275.9,320.2L275.9,320.2l0,0.1C275.8,320.3,275.8,320.4,275.9,320.2C275.8,320.2,275.8,320.2,275.9,320.2
	L275.9,320.2L275.9,320.2z"/>
<path class="st5" d="M294.3,320.3L294.3,320.3L294.3,320.3c0-0.1,0.1,0,0.1,0L294.3,320.3L294.3,320.3z"/>
<path class="st1" d="M16,190h128c8.8,0,16,7.2,16,16v128c0,8.8-7.2,16-16,16H16c-8.8,0-16-7.2-16-16V206C0,197.2,7.2,190,16,190z"/>
<path class="st2" d="M44.2,306.2c0,0.5-0.1,1-0.3,1.4s-0.6,0.8-1.1,1.1c-0.5,0.3-1.2,0.4-2,0.4H39v4h-1.6v-9.7h3.4
	c0.8,0,1.4,0.1,1.9,0.4c0.5,0.2,0.9,0.6,1.2,1C44.1,305.2,44.2,305.6,44.2,306.2L44.2,306.2z M40.8,307.8c0.6,0,1.1-0.1,1.4-0.4
	c0.3-0.3,0.5-0.7,0.5-1.2c0-1.1-0.6-1.6-1.8-1.6H39v3.2L40.8,307.8L40.8,307.8z M47.4,306.4c0.2-0.4,0.5-0.7,0.9-0.9
	c0.4-0.2,0.8-0.3,1.4-0.3v1.6h-0.4c-0.6,0-1.1,0.2-1.4,0.5c-0.3,0.3-0.5,0.9-0.5,1.6v4.1h-1.6v-7.7h1.6L47.4,306.4L47.4,306.4z
	 M54.5,313.1c-0.7,0-1.4-0.2-2-0.5c-0.6-0.3-1-0.8-1.4-1.4c-0.3-0.6-0.5-1.3-0.5-2.1s0.2-1.5,0.5-2.1c0.3-0.6,0.8-1.1,1.4-1.4
	c0.6-0.3,1.3-0.5,2-0.5s1.4,0.2,2,0.5s1.1,0.8,1.4,1.4c0.3,0.6,0.5,1.3,0.5,2.1s-0.2,1.5-0.5,2.1s-0.8,1.1-1.5,1.4
	C55.9,313,55.2,313.1,54.5,313.1L54.5,313.1z M54.5,311.7c0.4,0,0.8-0.1,1.2-0.3c0.4-0.2,0.7-0.5,0.9-0.9s0.3-0.9,0.3-1.4
	s-0.1-1-0.3-1.4c-0.2-0.4-0.5-0.7-0.8-0.9c-0.3-0.2-0.7-0.3-1.2-0.3s-0.8,0.1-1.2,0.3c-0.3,0.2-0.6,0.5-0.8,0.9
	c-0.2,0.4-0.3,0.9-0.3,1.4c0,0.8,0.2,1.5,0.6,1.9C53.3,311.5,53.8,311.7,54.5,311.7z M61.9,306.6v4.3c0,0.3,0.1,0.5,0.2,0.6
	c0.1,0.1,0.4,0.2,0.7,0.2h1v1.3h-1.3c-0.7,0-1.3-0.2-1.7-0.5c-0.4-0.3-0.6-0.9-0.6-1.6v-4.3h-0.9v-1.3h0.9v-1.9h1.6v1.9h1.9v1.3
	L61.9,306.6L61.9,306.6z M68.6,313.1c-0.7,0-1.4-0.2-2-0.5c-0.6-0.3-1.1-0.8-1.4-1.4c-0.3-0.6-0.5-1.3-0.5-2.1s0.2-1.5,0.5-2.1
	s0.8-1.1,1.4-1.4c0.6-0.3,1.3-0.5,2-0.5s1.4,0.2,2,0.5s1.1,0.8,1.4,1.4c0.3,0.6,0.5,1.3,0.5,2.1s-0.2,1.5-0.5,2.1s-0.8,1.1-1.5,1.4
	C70,313,69.3,313.1,68.6,313.1L68.6,313.1z M68.6,311.7c0.4,0,0.8-0.1,1.2-0.3c0.4-0.2,0.7-0.5,0.9-0.9c0.2-0.4,0.3-0.9,0.3-1.4
	s-0.1-1-0.3-1.4c-0.2-0.4-0.5-0.7-0.8-0.9c-0.3-0.2-0.7-0.3-1.2-0.3s-0.8,0.1-1.2,0.3c-0.3,0.2-0.6,0.5-0.8,0.9
	c-0.2,0.4-0.3,0.9-0.3,1.4c0,0.8,0.2,1.5,0.6,1.9C67.4,311.5,68,311.7,68.6,311.7z M76.1,306.6v4.3c0,0.3,0.1,0.5,0.2,0.6
	c0.1,0.1,0.4,0.2,0.7,0.2h1v1.3h-1.3c-0.7,0-1.3-0.2-1.7-0.5c-0.4-0.3-0.6-0.9-0.6-1.6v-4.3h-0.9v-1.3h0.9v-1.9h1.6v1.9h1.9v1.3
	L76.1,306.6L76.1,306.6z M86.3,305.3l-4.7,11.3H80l1.6-3.8l-3-7.6h1.8l2.2,5.9l2.2-5.9C84.7,305.3,86.3,305.3,86.3,305.3z
	 M89.1,306.4c0.3-0.4,0.6-0.6,1.1-0.9c0.5-0.2,1-0.4,1.6-0.4c0.7,0,1.3,0.2,1.8,0.5c0.6,0.3,1,0.8,1.3,1.4s0.5,1.3,0.5,2.1
	s-0.2,1.5-0.5,2.1c-0.3,0.6-0.8,1.1-1.3,1.4c-0.6,0.3-1.2,0.5-1.8,0.5c-0.6,0-1.1-0.1-1.6-0.4c-0.5-0.2-0.8-0.5-1.1-0.9v4.8h-1.6
	v-11.4h1.6V306.4L89.1,306.4z M93.8,309.1c0-0.5-0.1-1-0.3-1.4c-0.2-0.4-0.5-0.7-0.9-0.9c-0.3-0.2-0.7-0.3-1.2-0.3s-0.8,0.1-1.2,0.3
	c-0.3,0.2-0.6,0.5-0.9,0.9c-0.2,0.4-0.3,0.9-0.3,1.4s0.1,1,0.3,1.4c0.2,0.4,0.5,0.7,0.9,0.9c0.4,0.2,0.8,0.3,1.2,0.3
	s0.8-0.1,1.2-0.3s0.7-0.5,0.9-0.9C93.7,310.1,93.8,309.7,93.8,309.1L93.8,309.1z M96.5,309.1c0-0.8,0.2-1.5,0.5-2.1
	c0.3-0.6,0.8-1.1,1.3-1.4c0.6-0.3,1.2-0.5,1.8-0.5c0.6,0,1.1,0.1,1.6,0.4c0.5,0.2,0.8,0.5,1.1,0.9v-1.1h1.6v7.7h-1.6v-1.1
	c-0.3,0.4-0.6,0.7-1.1,0.9s-1,0.4-1.6,0.4c-0.7,0-1.3-0.2-1.8-0.5c-0.6-0.4-1-0.8-1.3-1.4C96.7,310.6,96.5,309.9,96.5,309.1
	L96.5,309.1z M102.8,309.1c0-0.5-0.1-1-0.3-1.4c-0.2-0.4-0.5-0.7-0.8-0.9c-0.4-0.2-0.7-0.3-1.2-0.3s-0.8,0.1-1.2,0.3
	c-0.3,0.2-0.6,0.5-0.9,0.9c-0.2,0.4-0.3,0.8-0.3,1.4s0.1,1,0.3,1.4c0.2,0.4,0.5,0.7,0.9,0.9c0.4,0.2,0.8,0.3,1.2,0.3
	s0.8-0.1,1.2-0.3c0.3-0.2,0.6-0.5,0.8-0.9C102.7,310.1,102.8,309.7,102.8,309.1L102.8,309.1z M109.6,305.2c0.6,0,1.1,0.1,1.6,0.4
	c0.5,0.2,0.8,0.5,1.1,0.9v-1.1h1.6v7.8c0,0.7-0.2,1.3-0.4,1.9c-0.3,0.6-0.7,1-1.3,1.3c-0.6,0.3-1.2,0.5-2,0.5
	c-1.1,0-1.9-0.2-2.6-0.7c-0.7-0.5-1.1-1.1-1.2-2h1.6c0.1,0.4,0.4,0.7,0.8,1c0.4,0.2,0.9,0.4,1.4,0.4c0.6,0,1.2-0.2,1.6-0.6
	c0.4-0.4,0.6-1,0.6-1.7v-1.3c-0.3,0.4-0.6,0.7-1.1,0.9c-0.5,0.2-1,0.4-1.6,0.4c-0.7,0-1.3-0.2-1.8-0.5c-0.6-0.4-1-0.8-1.3-1.4
	c-0.3-0.6-0.5-1.3-0.5-2.1s0.2-1.5,0.5-2.1c0.3-0.6,0.8-1.1,1.3-1.4C108.3,305.3,108.9,305.2,109.6,305.2L109.6,305.2z M112.3,309.1
	c0-0.5-0.1-1-0.3-1.4c-0.2-0.4-0.5-0.7-0.8-0.9s-0.7-0.3-1.2-0.3s-0.8,0.1-1.2,0.3c-0.3,0.2-0.6,0.5-0.9,0.9
	c-0.2,0.4-0.3,0.8-0.3,1.4s0.1,1,0.3,1.4c0.2,0.4,0.5,0.7,0.9,0.9c0.4,0.2,0.8,0.3,1.2,0.3s0.8-0.1,1.2-0.3s0.6-0.5,0.8-0.9
	C112.2,310.1,112.3,309.7,112.3,309.1L112.3,309.1z M123.1,309c0,0.3,0,0.5-0.1,0.8h-5.9c0.1,0.6,0.3,1.1,0.7,1.5
	c0.4,0.4,0.9,0.6,1.5,0.6c0.9,0,1.5-0.4,1.8-1.1h1.7c-0.2,0.7-0.7,1.3-1.3,1.8c-0.6,0.5-1.4,0.7-2.3,0.7c-0.7,0-1.4-0.2-2-0.5
	c-0.6-0.3-1-0.8-1.4-1.4c-0.3-0.6-0.5-1.3-0.5-2.1s0.2-1.5,0.5-2.1c0.3-0.6,0.8-1.1,1.4-1.4c0.6-0.3,1.3-0.5,2-0.5s1.4,0.2,1.9,0.5
	s1,0.8,1.3,1.3S123.1,308.2,123.1,309L123.1,309z M121.4,308.5c0-0.6-0.2-1.1-0.6-1.4c-0.4-0.4-0.9-0.5-1.5-0.5
	c-0.6,0-1,0.2-1.4,0.5c-0.4,0.4-0.6,0.8-0.7,1.4H121.4z"/>
<path class="st3" d="M42,259.6c0-6.5,0-12.9,0-19.4c0-1.7,0.6-3,1.6-4.3c1.5-1.8,3.5-2.7,5.8-2.7c5.8,0,11.7,0,17.5,0
	c3.2,0,5.6,1.4,7,4.4c0.4,0.9,0.6,1.9,0.6,2.9c0.1,1.4,0.2,2.7-0.1,4.1c-0.1,0.3,0.1,0.7,0.1,1c0,4.4,0,8.8,0,13.2
	c0,0.5,0,0.7,0.7,0.5c1.2-0.4,2.2-1.5,2.3-2.8c0.3-1.9,0.1-3.9,0.1-5.8c0-2.7,0-5.4,0-8.1c0-1.5,0.7-2.8,1.6-3.9
	c1.4-1.8,3.3-2.4,5.5-2.4c0.6,0,0.7-0.2,0.7-0.7c0-6.2,0-12.4,0-18.6c0-2.6,1.2-4.4,3.2-5.9c1.2-0.9,2.7-1.2,4.2-1.2
	c5.8,0,11.7-0.1,17.5,0c3.2,0,5.6,1.4,7,4.3c0.5,1,0.6,2.1,0.6,3.1c0,1.3,0.2,2.7-0.1,4c-0.1,0.3,0.1,0.7,0.1,1.1
	c0,9.2,0,18.3,0,27.5c0,1.6,0.1,3.2,0,4.8c-0.1,1.7-0.3,3.3-1.4,4.7c-1.5,1.9-3.3,3.1-5.8,3.1c-6.3,0-12.6,0-18.9,0
	c-1.4,0-2.7-0.7-3.7-1.6c-1.3-1.1-2.3-2.4-2.6-4.1c-0.1-0.3-0.1-0.5-0.1-0.8c0-5.1,0-10.2,0-15.4c0-1.3,0-1.2-1.3-1.3
	c-1.3-0.1-3,1.1-3.3,2.4c-0.1,0.2-0.1,0.4-0.1,0.7c0,4.1,0,8.2,0,12.3c0,2.2-0.3,4.3-2.1,5.9c-1,0.9-2.2,1.6-3.6,1.8
	c-0.6,0.1-0.5,0.3-0.5,0.7c0,3.1,0,6.1,0,9.2c0,1.9,0.1,3.7,0,5.6c-0.1,1.7-0.3,3.3-1.4,4.7c-1.5,1.9-3.3,3.1-5.8,3.1
	c-6.2,0-12.3,0-18.5,0c-2.3,0-4.1-1.2-5.5-3c-1-1.3-1.4-2.8-1.4-4.5C42.1,272.2,42,265.9,42,259.6L42,259.6L42,259.6z M71.3,242.5
	c0.1,0,0.2,0,0.1-0.1c0-0.6,0.1-1.2,0-1.8c-0.2-2.5-1.7-4.2-4.2-4.2c-6-0.1-12.1,0-18.1,0c-1.4,0-2.5,0.6-3.3,1.8
	c-0.8,1.1-0.6,2.4-0.7,3.7c0,0.6,0.1,0.7,0.7,0.7c4.9,0,9.9,0,14.8,0C64.2,242.6,67.7,242.6,71.3,242.5L71.3,242.5L71.3,242.5z
	 M114.8,219.2c0-0.6,0.1-1.2,0-1.8c-0.2-2.5-1.7-4.2-4.2-4.2c-6-0.1-12.1,0-18.1,0c-1.4,0-2.5,0.6-3.3,1.8c-0.8,1.1-0.6,2.4-0.7,3.7
	c0,0.6,0.1,0.7,0.7,0.7c4.9,0,9.9,0,14.8,0c3.6,0,7.1,0,10.7,0C114.8,219.3,114.9,219.3,114.8,219.2L114.8,219.2L114.8,219.2z
	 M114.7,253.4c-0.3,0-0.6,0-0.8,0H89.4c-0.1,0-0.3,0-0.4,0c-0.4-0.1-0.5,0.1-0.5,0.5c0,0.7,0,1.4,0,2.2c0.1,1.6,2.1,3.5,3.6,3.5
	c6.2,0,12.4,0,18.6,0c1.6,0,2.7-0.8,3.6-2.2c0.7-1.2,0.6-2.5,0.6-3.9C114.9,253.5,114.8,253.4,114.7,253.4L114.7,253.4L114.7,253.4z
	 M71.4,276.8c0-0.1,0-0.1-0.1-0.1c-0.3,0-0.6,0-0.8,0H46c-0.1,0-0.3,0-0.4,0c-0.4-0.1-0.5,0.1-0.5,0.5c0,0.7,0,1.5,0,2.2
	c0,1.6,2.1,3.5,3.6,3.5c6.2,0,12.4,0,18.6,0c1.6,0,2.7-0.8,3.6-2.2C71.6,279.5,71.5,278.2,71.4,276.8L71.4,276.8L71.4,276.8z
	 M71.3,262.7c-2.5,0-5,0-7.4,0c-0.4,0-0.5,0.2-0.6,0.6c-1.2,3.1-3.8,4.5-6.8,4.1c-3.4-0.5-5.9-3.8-5-7.6c0.8-3.4,4.3-5.4,7.5-4.5
	c2,0.6,3.5,1.9,4.2,3.9c0.1,0.3,0.2,0.5,0.6,0.5c2.5,0,5,0,7.4,0c0.1,0,0.2,0,0.1-0.1v-13.6c0-0.1,0-0.1-0.1-0.1c-0.1,0-0.1,0-0.2,0
	c-8.5,0-17,0-25.5,0c-0.7,0-0.5,0.3-0.5,0.7c0,8.8,0,17.7,0,26.5c0,0.6,0.1,0.7,0.7,0.7c4.9,0,9.9,0,14.8,0c3.6,0,7.1,0,10.7,0
	c0.1,0,0.2,0,0.1-0.1v-10.5C71.5,262.8,71.4,262.7,71.3,262.7L71.3,262.7L71.3,262.7z M114.9,250.2c0-4.8,0-9.5,0-14.3
	c0-4.4,0-8.9,0-13.3c0-0.1,0-0.1-0.1-0.1c-0.1,0-0.2,0-0.2,0c-8.5,0-16.9,0-25.4,0c-0.5,0-0.6,0.2-0.6,0.6c0,4.3,0,8.5,0,12.8
	c0,0.6,0.2,0.6,0.7,0.6c3.5,0,7,0,10.5,0c0.2,0,0.4,0.1,0.5-0.1c-0.9-0.9-1-1.9-0.3-2.5c0.6-0.6,1.8-0.4,2.6,0.4
	c0.9,0.9,1.8,1.8,2.7,2.7c0.7,0.7,0.7,1.6,0,2.2c-1.2,1-2.1,2.1-3.2,3.1c-0.7,0.6-1.8,0.5-2.3-0.3c-0.4-0.6-0.3-1.5,0.4-2.2
	c0.1-0.1,0.1-0.1,0.1-0.2H88.7c-0.1,0-0.2,0-0.1,0.1c0,3.3,0,6.7,0,10c0,0.6,0.1,0.7,0.7,0.7c6.1,0,12.1,0,18.2,0c2.4,0,4.9,0,7.3,0
	C114.9,250.3,114.9,250.3,114.9,250.2L114.9,250.2L114.9,250.2z M54.4,261.1c0,1.7,1.3,3.1,2.8,3.1c1.8,0.1,3.4-1.4,3.4-3.1
	c-0.1-1.8-1.3-3-3.2-3C55.7,258,54.3,259.5,54.4,261.1L54.4,261.1z"/>
<path class="st3" d="M65.3,218.6c-0.2-1.1,0.9-2.4,2.1-2.3c1.6,0,2.4,0.9,2.5,2.3c0.1,1.2-1.1,2.3-2.4,2.3S65.3,219.9,65.3,218.6z"
	/>
<path class="st3" d="M112.5,273.6c-1.1,0.2-2.3-1.2-2.3-2.3c0-1.2,1-2.4,2.2-2.4c1.5,0.1,2.3,0.9,2.4,2.3
	C114.9,272.6,113.5,273.7,112.5,273.6L112.5,273.6L112.5,273.6z"/>
<path class="st3" d="M97.8,282.9c0-0.9,0.6-1.5,1.4-1.5c0.9,0,1.7,0.7,1.7,1.5c0,0.8-0.8,1.6-1.6,1.6
	C98.4,284.4,97.8,283.8,97.8,282.9L97.8,282.9z"/>
<path class="st3" d="M82.2,272c-0.9,0-1.5-0.6-1.5-1.6c0-0.9,0.6-1.5,1.4-1.5c0.9,0,1.7,0.7,1.7,1.5C83.9,271.2,83.1,272,82.2,272
	L82.2,272L82.2,272z"/>
<path class="st3" d="M46.7,219.3c0-0.9,0.6-1.6,1.4-1.5c0.9,0,1.7,0.7,1.7,1.5c0,0.8-0.8,1.6-1.6,1.6S46.7,220.3,46.7,219.3
	L46.7,219.3L46.7,219.3z"/>
<path class="st3" d="M80.6,225.5c0,0.9-0.6,1.6-1.4,1.6c-0.9,0-1.5-0.6-1.5-1.5c0-0.9,0.6-1.6,1.4-1.6
	C80,224.1,80.7,224.4,80.6,225.5C80.6,225.5,80.6,225.5,80.6,225.5z"/>
<path class="st6" d="M100,239.7c0-0.1-0.1-0.1-0.1-0.2h0.3C100.1,239.6,100,239.6,100,239.7z"/>
<path class="st6" d="M71.3,242.6c0,0,0.1-0.1,0.1-0.1C71.5,242.5,71.4,242.6,71.3,242.6z"/>
<path class="st6" d="M114.7,250.3c0,0,0.1-0.1,0.1-0.1C114.9,250.3,114.8,250.3,114.7,250.3z"/>
<path class="st6" d="M88.7,239.5c0,0-0.1,0.1-0.1,0.1C88.5,239.5,88.6,239.5,88.7,239.5z"/>
<path class="st6" d="M114.9,253.6c0,0-0.1-0.1-0.1-0.1C114.8,253.4,114.9,253.5,114.9,253.6z"/>
<path class="st6" d="M71.3,259.6l0.1-0.1C71.5,259.6,71.4,259.6,71.3,259.6z"/>
<path class="st6" d="M114.9,222.6c0,0-0.1-0.1-0.1-0.1C114.8,222.4,114.9,222.5,114.9,222.6z"/>
<path class="st6" d="M71.4,262.9c0,0-0.1-0.1-0.1-0.1C71.4,262.7,71.5,262.8,71.4,262.9z"/>
<path class="st6" d="M114.7,219.3l0.1-0.1C114.9,219.3,114.8,219.3,114.7,219.3z"/>
<path class="st6" d="M71.3,273.6c0,0,0.1-0.1,0.1-0.1C71.5,273.5,71.4,273.6,71.3,273.6z"/>
<path class="st6" d="M71.4,276.8c0,0-0.1-0.1-0.1-0.1C71.4,276.7,71.5,276.7,71.4,276.8z"/>
<path class="st6" d="M71.4,245.8c0,0-0.1-0.1-0.1-0.1C71.4,245.7,71.5,245.7,71.4,245.8z"/>
</svg>
