<?xml version="1.0" encoding="UTF-8"?>
<svg id="Calque_1" data-name="Calque 1" xmlns="http://www.w3.org/2000/svg" viewBox="0 0 26.67 22.73">
  <defs>
    <style>
      .cls-1 {
        fill: #0086c0;
      }
    </style>
  </defs>
  <path class="cls-1" d="m22.67,4h-1.71l-.43-1.33c-.28-.78-.79-1.46-1.47-1.94C18.39.25,17.58,0,16.75,0h-6.83c-.84,0-1.65.27-2.33.76-.68.49-1.19,1.18-1.45,1.98l-.43,1.33h-1.71c-1.06,0-2.08.42-2.83,1.17-.75.75-1.17,1.77-1.17,2.83v10.67c0,1.06.42,2.08,1.17,2.83.75.75,1.77,1.17,2.83,1.17h18.67c1.06,0,2.08-.42,2.83-1.17.75-.75,1.17-1.77,1.17-2.83v-10.67c0-.53-.09-1.06-.29-1.55-.2-.49-.49-.94-.86-1.32-.37-.38-.82-.68-1.31-.88-.49-.21-1.02-.31-1.55-.31Zm1.33,14.67c0,.35-.14.69-.39.94s-.59.39-.94.39H4c-.35,0-.69-.14-.94-.39-.25-.25-.39-.59-.39-.94v-10.67c0-.35.14-.69.39-.94.25-.25.59-.39.94-.39h2.67c.29.02.58-.07.82-.23.24-.16.42-.4.51-.68l.72-2.19c.09-.26.26-.49.49-.66.23-.16.5-.25.78-.25h6.83c.28,0,.55.09.78.25.23.16.4.39.49.66l.72,2.19c.09.25.25.48.46.64s.47.26.74.27h2.67c.35,0,.69.14.94.39.25.25.39.59.39.94v10.67ZM13.33,6.67c-1.05,0-2.09.31-2.96.9-.88.59-1.56,1.42-1.96,2.39-.4.97-.51,2.05-.3,3.08.21,1.03.71,1.98,1.46,2.73.75.75,1.7,1.25,2.73,1.46,1.03.21,2.11.1,3.08-.3.97-.4,1.81-1.09,2.39-1.96.59-.88.9-1.91.9-2.96,0-1.41-.56-2.77-1.56-3.77-1-1-2.36-1.56-3.77-1.56h0Zm0,8c-.53,0-1.04-.16-1.48-.45-.44-.29-.78-.71-.98-1.2-.2-.49-.25-1.02-.15-1.54.1-.52.36-.99.73-1.37.37-.37.85-.63,1.37-.73.52-.1,1.05-.05,1.54.15.49.2.9.54,1.2.98.29.44.45.95.45,1.48,0,.71-.28,1.39-.78,1.89-.5.5-1.18.78-1.89.78Z"/>
</svg>