<?xml version="1.0" encoding="UTF-8"?>
<svg id="Calque_1" data-name="Calque 1" xmlns="http://www.w3.org/2000/svg" viewBox="0 0 24.48 26.68">
  <defs>
    <style>
      .cls-1 {
        fill: #0086c0;
      }
    </style>
  </defs>
  <path class="cls-1" d="m7.86,16.39c-.19-.18-.43-.31-.68-.36-.26-.05-.53-.02-.77.08-.17.06-.32.16-.44.28-.12.12-.22.27-.28.44-.09.2-.12.42-.1.64.02.22.09.43.22.61.12.18.29.33.48.44.19.1.41.16.63.16s.44-.05.63-.16c.19-.1.36-.26.48-.44.12-.18.2-.4.22-.61.02-.22-.01-.44-.1-.64-.07-.16-.16-.31-.28-.44Zm10.67,0c-.26-.24-.6-.37-.95-.37s-.69.13-.95.37c-.12.13-.21.28-.28.44-.1.24-.13.51-.08.77.05.26.18.5.36.68.13.12.28.21.44.28.16.07.33.11.51.11s.35-.04.51-.11c.16-.07.31-.16.44-.28.19-.19.31-.42.36-.68.05-.26.02-.53-.08-.77-.07-.16-.16-.31-.28-.44h0Zm3.47,6.14c.94-.75,1.66-1.75,2.08-2.88.42-1.13.52-2.36.3-3.54l-2-10.67c-.29-1.53-1.1-2.91-2.29-3.9C18.88.54,17.37,0,15.82,0h-7.15c-1.55,0-3.06.54-4.26,1.54-1.2.99-2.01,2.37-2.29,3.9L.12,16.1c-.23,1.19-.12,2.41.3,3.54.42,1.13,1.14,2.13,2.08,2.88l-1.86,1.86c-.13.12-.23.27-.29.43-.07.16-.1.34-.1.51,0,.18.03.35.1.51.07.16.17.31.29.44.12.12.27.22.44.29s.34.1.51.1c.18,0,.35-.04.51-.1.16-.07.31-.17.43-.29l2.49-2.49c.54.14,1.1.21,1.66.22h11.15c.56,0,1.12-.07,1.66-.22l2.49,2.49c.25.25.59.38.94.38.35,0,.69-.14.94-.39.25-.25.39-.59.39-.94,0-.35-.14-.69-.38-.94l-1.86-1.86ZM4.74,5.93c.17-.92.66-1.74,1.38-2.34.72-.6,1.62-.92,2.55-.92h7.15c.93,0,1.84.33,2.55.92.72.6,1.2,1.42,1.38,2.34l.46,2.47c-1,1.13-2.22,2.04-3.59,2.66-1.37.62-2.86.94-4.37.94s-3-.32-4.37-.94c-1.37-.62-2.6-1.53-3.59-2.66l.46-2.47Zm16.16,13.96c-.37.45-.84.82-1.38,1.07-.53.25-1.11.38-1.7.38H6.67c-.59,0-1.17-.13-1.7-.38-.53-.25-1-.61-1.38-1.07-.38-.45-.65-.98-.79-1.55-.15-.57-.17-1.16-.06-1.74l.95-5.06c2.39,2.02,5.43,3.13,8.56,3.13s6.16-1.11,8.56-3.13l.95,5.06c.11.58.09,1.17-.06,1.74-.15.57-.42,1.1-.8,1.55h0Z"/>
</svg>